<?xml version="1.0" standalone="no"?>
<!DOCTYPE svg PUBLIC "-//W3C//DTD SVG 20010904//EN"
 "http://www.w3.org/TR/2001/REC-SVG-20010904/DTD/svg10.dtd">
<svg version="1.0" xmlns="http://www.w3.org/2000/svg"
 width="2681.000000pt" height="2681.000000pt" viewBox="0 0 2681.000000 2681.000000"
 preserveAspectRatio="xMidYMid meet">
<metadata>
Created by potrace 1.11, written by Peter Selinger 2001-2013
</metadata>
<g transform="translate(0.000000,2681.000000) scale(0.100000,-0.100000)"
fill="#000000" stroke="none">
<path d="M4570 21850 c0 -5 5 -10 11 -10 5 0 7 5 4 10 -3 6 -8 10 -11 10 -2 0
-4 -4 -4 -10z"/>
<path d="M4999 21843 c-13 -16 -12 -17 4 -4 9 7 17 15 17 17 0 8 -8 3 -21 -13z"/>
<path d="M5053 21835 c0 -8 4 -12 9 -9 5 3 6 10 3 15 -9 13 -12 11 -12 -6z"/>
<path d="M4539 21818 c-5 -18 -6 -38 -1 -34 7 8 12 36 6 36 -2 0 -4 -1 -5 -2z"/>
<path d="M5406 21808 c3 -5 10 -6 15 -3 13 9 11 12 -6 12 -8 0 -12 -4 -9 -9z"/>
<path d="M4406 21788 c3 -5 10 -6 15 -3 13 9 11 12 -6 12 -8 0 -12 -4 -9 -9z"/>
<path d="M4454 21788 c-4 -7 -4 -10 1 -6 4 4 15 2 24 -5 14 -11 14 -10 2 6
-16 20 -18 21 -27 5z"/>
<path d="M4573 21785 c0 -8 4 -12 9 -9 5 3 6 10 3 15 -9 13 -12 11 -12 -6z"/>
<path d="M4606 21788 c3 -5 10 -6 15 -3 13 9 11 12 -6 12 -8 0 -12 -4 -9 -9z"/>
<path d="M4810 21790 c0 -5 5 -10 11 -10 5 0 7 5 4 10 -3 6 -8 10 -11 10 -2 0
-4 -4 -4 -10z"/>
<path d="M4855 21790 c-3 -5 -1 -10 4 -10 6 0 11 5 11 10 0 6 -2 10 -4 10 -3
0 -8 -4 -11 -10z"/>
<path d="M4970 21789 c0 -5 5 -7 10 -4 6 3 10 8 10 11 0 2 -4 4 -10 4 -5 0
-10 -5 -10 -11z"/>
<path d="M5215 21790 c3 -5 8 -10 11 -10 2 0 4 5 4 10 0 6 -5 10 -11 10 -5 0
-7 -4 -4 -10z"/>
<path d="M5513 21775 c0 -8 4 -12 9 -9 5 3 6 10 3 15 -9 13 -12 11 -12 -6z"/>
<path d="M4235 21771 c-3 -5 -2 -12 3 -15 5 -3 9 1 9 9 0 17 -3 19 -12 6z"/>
<path d="M5120 21770 c-9 -6 -10 -10 -3 -10 6 0 15 5 18 10 8 12 4 12 -15 0z"/>
<path d="M5475 21770 c-3 -5 -1 -10 4 -10 6 0 11 5 11 10 0 6 -2 10 -4 10 -3
0 -8 -4 -11 -10z"/>
<path d="M5675 21771 c-3 -5 -2 -12 3 -15 5 -3 9 1 9 9 0 17 -3 19 -12 6z"/>
<path d="M4293 21745 c0 -8 4 -12 9 -9 5 3 6 10 3 15 -9 13 -12 11 -12 -6z"/>
<path d="M5626 21748 c3 -5 10 -6 15 -3 13 9 11 12 -6 12 -8 0 -12 -4 -9 -9z"/>
<path d="M4395 21739 c-4 -6 -5 -12 -2 -15 2 -3 7 2 10 11 7 17 1 20 -8 4z"/>
<path d="M4627 21743 c-3 -5 -31 -9 -61 -8 -31 0 -56 -3 -56 -7 0 -4 -8 -7
-17 -6 -10 0 -45 -9 -78 -20 -32 -11 -63 -18 -69 -15 -5 4 -6 1 -2 -6 5 -8 0
-14 -13 -18 -12 -3 -21 -9 -21 -14 0 -5 -5 -9 -10 -9 -16 0 -90 -57 -83 -64 3
-3 1 -6 -5 -6 -5 0 -20 -16 -32 -35 -12 -19 -26 -32 -32 -29 -9 6 -34 13 -103
29 -25 6 -151 7 -185 1 -64 -10 -130 -28 -136 -37 -3 -5 -12 -9 -21 -9 -9 0
-31 -11 -49 -25 -18 -14 -37 -25 -42 -25 -4 0 -19 -11 -32 -25 -12 -13 -28
-22 -34 -18 -6 3 -8 3 -4 -2 4 -4 -6 -25 -22 -46 -30 -37 -65 -107 -62 -121 3
-12 -13 -9 -27 5 -11 9 -12 9 -7 0 5 -9 2 -11 -8 -7 -9 3 -13 11 -9 17 3 5 1
7 -5 4 -15 -10 -43 3 -35 17 5 7 2 7 -8 -1 -9 -7 -20 -8 -29 -3 -8 5 -17 7
-21 4 -4 -2 -10 0 -14 5 -3 6 -13 7 -22 4 -9 -4 -14 -2 -10 3 4 6 -6 9 -24 6
-19 -3 -29 0 -29 8 0 10 -3 10 -14 1 -16 -13 -37 -11 -48 4 -5 6 -8 4 -8 -5 0
-13 -1 -13 -10 0 -8 12 -10 12 -10 1 0 -11 -3 -11 -17 0 -9 8 -14 9 -10 3 9
-16 -73 -24 -92 -10 -11 8 -13 8 -7 -2 5 -8 -3 -14 -26 -19 -18 -4 -37 -6 -42
-5 -5 2 -16 -3 -25 -11 -21 -19 -77 -37 -87 -29 -4 4 -5 2 -1 -3 3 -6 -3 -16
-14 -23 -15 -10 -19 -10 -20 0 0 7 -4 5 -8 -5 -4 -10 -10 -18 -13 -18 -9 0
-97 -89 -115 -116 -9 -13 -23 -23 -32 -24 -10 0 -11 -2 -3 -6 6 -2 9 -9 6 -15
-4 -5 -13 -3 -23 6 -15 14 -18 14 -18 1 0 -8 4 -12 9 -9 16 10 18 -21 4 -61
-10 -29 -20 -40 -35 -41 -12 -1 -21 3 -21 9 0 5 -7 4 -15 -3 -13 -11 -18 -10
-31 6 -9 10 -13 13 -9 7 4 -8 -1 -13 -12 -14 -10 -1 -27 -2 -38 -3 -11 0 -28
3 -39 7 -13 6 -16 6 -12 -2 5 -7 -5 -11 -26 -12 -39 -2 -48 -3 -68 -11 -8 -4
-33 -12 -55 -19 -22 -7 -59 -23 -83 -36 -23 -13 -47 -21 -52 -18 -6 4 -9 1 -8
-7 2 -8 -4 -12 -16 -10 -10 2 -15 -1 -12 -6 3 -6 -19 -34 -49 -63 -30 -30 -55
-58 -55 -62 0 -5 -9 -22 -21 -38 -11 -16 -18 -29 -15 -29 4 0 0 -16 -8 -35
-15 -35 -18 -214 -5 -225 4 -3 9 -16 10 -30 2 -14 6 -27 9 -30 18 -18 32 -54
21 -58 -6 -2 -11 -9 -11 -15 0 -5 3 -7 7 -4 7 8 43 -21 43 -35 0 -6 9 -21 20
-35 27 -34 25 -43 -6 -37 -19 3 -24 1 -18 -8 6 -10 3 -9 -9 1 -11 9 -17 10
-17 2 0 -6 -5 -11 -11 -11 -5 0 -7 6 -3 13 5 8 2 8 -9 -2 -9 -7 -17 -10 -17
-6 0 4 -7 2 -15 -5 -20 -16 -32 -5 -16 14 9 11 9 16 0 22 -8 5 -9 3 -4 -6 6
-9 4 -12 -7 -8 -11 5 -14 0 -10 -18 4 -20 0 -24 -19 -25 -13 -1 -30 -1 -38 0
-7 2 -10 -2 -7 -8 4 -5 -4 -13 -16 -17 -13 -3 -35 -15 -49 -25 -14 -10 -29
-16 -33 -12 -3 3 -6 1 -6 -6 0 -7 -5 -9 -12 -5 -6 4 -8 3 -5 -3 6 -9 -50 -68
-65 -68 -3 0 -10 -4 -15 -9 -5 -5 -3 -6 5 -2 17 10 15 -2 -6 -32 -18 -25 -28
-47 -31 -65 0 -4 -7 -22 -14 -40 -9 -21 -13 -64 -11 -122 3 -100 11 -142 44
-230 12 -33 24 -70 27 -82 3 -13 8 -21 12 -18 4 2 16 -12 27 -32 18 -34 14
-49 -12 -43 -4 1 -10 -2 -13 -7 -3 -5 -26 -21 -51 -35 -25 -15 -69 -49 -97
-76 -28 -28 -55 -47 -59 -44 -4 4 -4 2 -1 -4 3 -6 -5 -27 -19 -47 -14 -20 -22
-37 -19 -37 3 0 -1 -13 -10 -30 -8 -16 -18 -44 -20 -62 -10 -67 -13 -118 -6
-118 4 0 8 -15 9 -34 2 -19 9 -51 17 -70 9 -20 12 -36 9 -36 -4 0 -1 -7 6 -15
7 -8 10 -22 6 -30 -3 -9 -2 -13 4 -10 13 8 41 -50 34 -72 -4 -13 -3 -15 4 -4
15 21 25 -5 12 -31 -10 -21 -10 -22 3 -5 9 10 18 14 21 9 6 -10 -93 -99 -106
-95 -4 2 -5 -3 -2 -11 3 -7 -2 -19 -11 -26 -13 -11 -54 -86 -60 -110 -14 -52
-20 -67 -29 -79 -6 -8 -6 -12 -1 -9 6 4 10 -27 11 -85 1 -112 5 -147 18 -147
6 0 5 -5 -2 -12 -7 -7 -12 -17 -12 -22 0 -6 5 -4 10 4 8 13 10 13 10 -1 0 -20
79 -181 93 -190 5 -4 7 -14 4 -22 -4 -11 -1 -14 9 -10 19 7 18 -6 -4 -31 -17
-21 -17 -21 4 -4 19 17 21 16 39 -5 11 -12 18 -28 17 -35 -2 -7 1 -12 5 -11
23 4 24 -3 3 -26 -12 -13 -27 -22 -33 -18 -6 3 -7 2 -4 -4 4 -5 -7 -37 -24
-70 -19 -38 -31 -79 -33 -110 -1 -27 -6 -55 -10 -61 -4 -7 -3 -12 2 -12 4 0 9
-17 10 -37 4 -69 7 -88 15 -94 4 -3 9 -16 10 -27 1 -12 4 -22 8 -22 8 0 32
-57 32 -76 0 -8 3 -12 5 -9 9 8 41 -48 35 -58 -3 -6 -1 -7 5 -3 6 3 16 -3 23
-15 6 -12 27 -37 47 -54 22 -21 32 -37 27 -45 -5 -9 -4 -11 3 -6 6 4 29 -4 50
-18 39 -24 39 -25 28 -60 -7 -23 -14 -32 -21 -26 -7 6 -11 2 -11 -10 0 -10 3
-18 6 -17 6 2 10 -8 10 -24 0 -5 -5 -7 -12 -3 -7 5 -8 3 -2 -7 5 -8 9 -27 10
-44 1 -16 4 -38 8 -47 4 -9 5 -21 2 -27 -4 -5 -2 -12 4 -16 5 -3 10 -15 10
-26 0 -11 9 -38 20 -60 12 -22 18 -44 15 -49 -4 -6 1 -13 9 -16 9 -3 22 -18
29 -32 26 -52 42 -77 55 -85 7 -5 9 -13 6 -19 -4 -6 -3 -8 3 -5 12 8 46 -27
36 -36 -3 -4 1 -7 10 -7 9 0 23 -10 32 -22 8 -13 19 -23 23 -23 4 0 6 -4 4
-10 -2 -5 0 -7 3 -3 13 13 47 -12 41 -29 -5 -13 -4 -14 9 -3 12 10 15 10 16
-1 0 -8 2 -24 5 -37 4 -21 3 -22 -12 -8 -19 19 -31 21 -15 3 6 -8 7 -17 3 -21
-4 -4 -2 -7 3 -6 24 5 33 -2 39 -31 8 -40 58 -149 68 -149 4 0 8 -4 8 -9 0 -6
16 -27 35 -48 19 -21 35 -44 35 -51 0 -7 4 -11 9 -7 5 3 18 -6 29 -20 11 -14
25 -25 32 -25 7 0 9 -8 5 -22 -4 -15 -3 -19 3 -10 7 10 17 8 50 -10 42 -22 44
-38 4 -41 -11 0 -20 -6 -19 -12 1 -5 -8 -10 -20 -9 -12 0 -20 -3 -17 -8 3 -4
-3 -11 -13 -15 -10 -4 -20 -9 -23 -13 -15 -17 -62 -40 -72 -34 -6 4 -8 3 -5
-3 3 -5 -13 -20 -36 -33 -23 -13 -46 -28 -52 -32 -5 -5 -39 -27 -75 -50 -36
-23 -66 -45 -68 -50 -2 -4 -8 -8 -12 -8 -5 0 -56 -35 -112 -77 -567 -423
-1001 -929 -1301 -1515 -63 -123 -85 -170 -137 -293 -5 -11 -19 -45 -30 -75
-12 -30 -26 -64 -31 -75 -33 -78 -130 -406 -145 -493 -3 -15 -9 -40 -14 -57
-8 -28 -32 -162 -45 -250 -3 -22 -10 -67 -15 -100 -28 -174 -34 -646 -11 -860
70 -664 288 -1272 659 -1835 71 -107 200 -283 255 -347 13 -16 55 -64 93 -108
72 -83 279 -295 374 -381 212 -192 534 -425 795 -574 135 -78 415 -220 433
-220 7 0 11 -4 8 -9 -3 -5 0 -8 7 -8 6 0 26 -5 43 -12 33 -13 52 -50 32 -62
-7 -5 -7 -8 1 -10 7 -3 13 -21 14 -42 1 -20 6 -37 10 -37 4 0 3 -9 -3 -20 -6
-11 -7 -20 -3 -19 20 3 27 -2 13 -11 -11 -7 -11 -10 -2 -10 7 0 10 -5 7 -10
-4 -6 -3 -16 2 -23 5 -7 10 -21 11 -32 0 -11 4 -33 8 -50 4 -16 8 -49 8 -72 1
-22 4 -39 8 -36 5 2 8 -2 9 -9 0 -7 2 -22 5 -33 2 -11 6 -33 8 -50 2 -16 9
-54 15 -84 6 -29 8 -57 5 -62 -3 -5 0 -9 5 -9 6 0 11 -7 11 -16 0 -8 -5 -12
-11 -8 -6 3 -3 -6 7 -22 11 -15 18 -29 16 -31 -2 -2 0 -18 3 -36 3 -17 7 -45
9 -62 2 -16 6 -37 9 -45 3 -8 8 -31 11 -50 3 -19 8 -47 12 -63 4 -16 1 -33 -6
-42 -11 -13 -10 -14 4 -9 11 4 16 1 16 -11 0 -10 -5 -14 -12 -10 -7 4 -5 0 4
-8 9 -7 17 -22 18 -33 1 -50 5 -74 11 -74 3 0 5 -10 5 -23 -1 -12 1 -29 6 -39
7 -15 20 -99 22 -143 1 -11 4 -23 9 -26 4 -3 8 -24 10 -47 1 -23 5 -42 10 -42
4 0 7 -9 7 -21 0 -13 -4 -18 -12 -13 -7 4 -6 -1 4 -12 9 -10 15 -31 13 -46 -2
-16 0 -28 5 -28 4 0 10 -13 12 -30 3 -17 0 -30 -6 -30 -6 0 -5 -4 2 -9 13 -8
23 -49 26 -104 0 -15 4 -27 8 -27 5 0 8 -5 8 -11 0 -5 -6 -7 -12 -3 -10 6 -10
5 -1 -7 6 -8 13 -26 15 -39 2 -14 7 -31 11 -38 5 -7 3 -12 -5 -12 -8 0 -9 -3
-3 -8 17 -12 53 -210 41 -223 -8 -9 -8 -10 2 -5 7 4 13 2 14 -6 0 -7 2 -17 3
-23 2 -15 17 -98 21 -119 2 -11 -2 -26 -8 -33 -9 -11 -8 -13 2 -11 7 2 16 -9
20 -24 6 -21 4 -28 -9 -31 -15 -4 -15 -5 0 -6 21 -1 30 -32 16 -56 -7 -13 -6
-16 2 -11 7 4 11 0 11 -13 0 -10 3 -27 7 -37 5 -13 3 -15 -8 -10 -8 4 -6 1 3
-7 14 -11 15 -16 5 -27 -9 -10 -9 -11 1 -6 8 5 13 -1 14 -16 1 -24 4 -39 8
-48 1 -3 3 -16 4 -30 1 -14 5 -34 9 -45 5 -17 14 -66 21 -115 3 -19 16 -80 22
-100 4 -15 54 -25 54 -11 0 7 50 14 112 15 20 1 34 4 32 8 -3 4 9 6 25 4 17
-2 31 1 31 6 0 5 4 7 8 4 4 -3 26 -1 48 4 21 4 59 11 84 14 92 11 135 17 149
22 21 7 120 18 163 19 20 0 34 3 31 8 -2 4 8 7 24 8 15 0 39 3 53 5 14 3 40 6
57 7 18 2 36 6 39 10 12 12 26 8 18 -5 -5 -8 0 -7 11 2 10 8 19 13 19 12 1 -2
17 -1 36 2 19 4 52 8 72 9 21 2 41 6 44 10 4 4 17 -1 28 -10 16 -14 18 -14 8
-2 -11 14 -4 17 58 26 39 5 73 7 75 4 3 -2 -3 -14 -12 -25 -18 -21 -18 -21 4
-2 12 10 21 21 20 25 -1 3 3 7 8 8 6 0 9 -2 8 -6 -1 -4 4 -8 12 -8 7 0 11 6 9
12 -3 6 1 12 8 12 7 0 20 2 28 4 8 2 14 -2 12 -9 -1 -8 2 -11 8 -7 6 4 19 1
28 -6 13 -11 12 -8 -2 9 -17 19 -17 22 -3 22 10 0 17 -6 17 -12 0 -9 3 -8 9 1
8 12 11 9 17 -13 5 -19 2 -31 -7 -37 -11 -7 -11 -9 2 -9 13 0 16 -9 15 -41 -1
-22 2 -43 6 -45 5 -3 6 -9 3 -14 -3 -5 4 -14 15 -20 15 -8 20 -8 20 2 0 10 2
10 9 -1 6 -9 10 -9 12 -2 2 6 29 12 60 14 31 2 61 7 68 11 7 5 15 6 18 3 3 -3
16 -2 29 4 14 5 50 12 82 15 31 3 59 8 61 10 2 2 11 -2 19 -9 10 -7 13 -8 9
-1 -4 7 2 14 13 17 11 3 20 0 20 -6 0 -8 4 -7 12 1 15 15 32 16 22 1 -3 -6 4
-4 17 4 13 9 51 18 83 22 32 3 62 8 67 10 4 3 10 -1 12 -7 4 -10 6 -10 6 0 1
7 6 10 11 7 6 -3 10 -2 10 2 0 8 46 10 60 4 17 -8 39 -8 34 0 -3 5 -10 7 -15
4 -5 -4 -9 -2 -9 3 0 5 12 10 28 10 15 0 56 5 92 12 36 6 76 13 90 14 14 1 31
5 38 9 11 8 17 -5 12 -28 -1 -5 2 -6 7 -2 4 5 8 14 8 20 0 7 14 13 30 13 17 1
30 3 30 4 0 1 9 4 20 5 11 2 41 8 67 13 25 5 62 9 81 8 19 -1 33 3 30 8 -3 5
8 7 25 4 17 -2 34 0 36 6 3 7 5 6 5 -1 1 -7 6 -13 12 -13 5 0 8 4 5 9 -8 12
11 17 57 16 20 0 37 2 37 5 0 11 44 9 58 -2 7 -6 12 -7 11 -2 -4 21 2 26 18
13 11 -10 14 -10 9 -1 -4 6 -4 12 1 12 4 1 31 3 58 6 88 10 100 10 97 -4 -1
-8 2 -11 8 -7 6 3 8 10 5 15 -7 12 40 24 54 15 10 -6 17 42 11 70 -7 31 -12
64 -15 92 l-3 32 27 -17 c14 -9 28 -19 31 -22 3 -3 17 -11 33 -19 15 -8 27
-18 27 -23 0 -5 4 -6 10 -3 5 3 10 1 10 -4 0 -6 5 -10 12 -8 7 1 12 -3 13 -10
0 -6 4 -15 9 -20 5 -5 6 -3 2 5 -10 16 5 15 30 -2 30 -21 204 -114 246 -132
21 -9 35 -21 31 -27 -3 -5 -1 -7 5 -3 6 3 55 -14 109 -40 278 -130 736 -286
1008 -344 194 -41 353 -70 465 -85 25 -3 56 -8 70 -10 14 -2 57 -7 95 -11 39
-3 78 -8 89 -10 97 -18 652 -25 861 -11 811 53 1611 291 2285 680 119 68 385
242 474 310 l59 44 121 -82 c133 -91 289 -190 372 -235 137 -75 163 -90 229
-123 331 -167 693 -309 1036 -406 146 -41 413 -106 504 -122 28 -4 101 -17
164 -28 329 -58 667 -86 1046 -86 209 1 531 12 545 19 3 2 48 7 100 11 52 3
97 8 100 10 3 1 37 6 75 10 228 23 624 104 923 190 1368 392 2504 1260 3076
2350 26 50 51 94 55 98 5 5 66 -3 137 -17 133 -26 294 -50 399 -61 33 -4 70
-8 82 -10 127 -20 700 -27 933 -12 69 5 127 10 130 12 3 1 41 6 85 10 44 4 82
8 85 10 3 1 30 6 60 9 62 7 72 9 225 37 1337 245 2521 1027 3200 2111 156 250
311 577 407 858 56 165 131 468 151 610 32 224 35 244 43 400 40 695 -98 1364
-410 1989 -333 666 -857 1254 -1491 1675 -157 104 -215 140 -335 210 -110 64
-464 234 -582 280 -38 14 -96 37 -131 51 -169 65 -524 171 -672 199 -11 2 -38
9 -60 14 -22 6 -58 13 -80 17 -21 3 -43 11 -47 18 -6 9 -8 9 -8 0 0 -9 -7 -10
-27 -2 -16 6 -28 10 -28 8 0 -2 -102 12 -130 18 -11 2 -24 5 -30 6 -5 2 -16 6
-22 10 -8 5 -13 3 -13 -3 0 -6 -5 -8 -12 -3 -7 4 -20 6 -30 5 -9 -2 -19 1 -22
7 -4 5 -22 7 -41 4 -20 -3 -41 -1 -49 6 -8 7 -16 8 -18 4 -3 -4 -4 -3 -2 3 1
6 -2 17 -7 25 -8 11 -9 9 -7 -6 3 -18 -2 -20 -47 -17 -59 3 -149 9 -153 11 -2
1 5 13 16 28 10 16 22 36 25 46 4 10 12 15 18 11 7 -4 10 -1 7 7 -8 20 10 49
30 49 15 0 15 2 2 10 -9 6 -11 10 -3 10 7 0 10 7 7 15 -4 10 0 15 12 15 16 0
17 -2 4 -10 -13 -9 -13 -10 0 -10 12 0 12 -2 2 -9 -8 -4 -13 -11 -13 -15 3
-19 0 -26 -11 -23 -7 1 -13 -2 -13 -8 -2 -26 -17 -55 -28 -55 -7 0 -6 -4 3
-10 11 -7 11 -10 2 -10 -8 0 -10 -5 -6 -12 5 -9 2 -9 -9 1 -11 9 -17 10 -17 2
0 -6 5 -11 11 -11 5 0 7 -6 3 -12 -5 -9 -2 -9 9 1 14 11 17 11 17 0 1 -9 4 -8
11 4 6 9 15 15 21 11 6 -4 5 -9 -3 -15 -9 -5 -2 -7 19 -4 17 2 32 0 32 -4 0
-4 10 -7 23 -8 21 -2 21 -1 -3 12 -14 7 -28 11 -32 9 -10 -6 -11 10 -1 19 3 4
15 0 24 -9 17 -16 20 -15 37 6 l19 23 7 -26 c3 -15 11 -27 17 -27 6 0 7 -5 3
-12 -5 -7 -3 -8 5 -4 10 6 9 12 -2 24 -30 36 -28 53 8 89 35 35 48 56 20 33
-13 -10 -19 -10 -33 4 -22 19 -32 20 -32 4 0 -6 3 -9 6 -5 4 3 13 -1 21 -9 18
-18 9 -32 -10 -16 -9 8 -17 8 -24 1 -7 -7 -10 3 -10 30 0 27 4 38 11 33 31
-19 52 0 39 36 -6 15 -4 15 16 -2 19 -17 20 -21 6 -28 -16 -10 -21 -38 -6 -38
6 0 13 5 17 12 4 7 3 8 -4 4 -19 -11 -14 5 6 20 16 12 16 14 -3 28 -11 8 -20
20 -20 28 0 8 -11 13 -28 12 -16 -1 -26 3 -24 10 2 6 10 10 18 9 8 -2 20 6 27
17 9 15 9 20 0 20 -18 0 0 13 22 17 25 4 25 -2 1 -28 -15 -17 -17 -24 -7 -44
6 -14 13 -20 14 -14 2 5 -1 16 -7 23 -8 10 -7 17 5 26 8 8 22 26 29 41 13 23
13 29 0 39 -8 7 -15 17 -15 23 0 5 9 2 20 -8 11 -10 20 -15 20 -10 0 17 -44
45 -65 41 -19 -3 -22 0 -22 27 0 18 2 26 5 19 2 -6 8 -10 13 -7 5 4 6 -1 3 -9
-3 -9 -1 -16 6 -16 6 0 8 5 5 10 -12 19 6 10 38 -20 17 -16 33 -27 36 -24 2 2
-10 16 -27 30 -17 15 -29 31 -26 36 3 5 17 -3 30 -17 13 -14 24 -21 24 -15 0
6 4 8 10 5 6 -4 7 1 3 12 -6 16 -5 16 16 -1 17 -16 21 -17 16 -4 -9 23 -35 31
-42 12 -5 -13 -9 -12 -28 6 -12 11 -25 17 -30 13 -4 -5 -5 -1 -3 7 3 8 10 14
16 13 5 -1 13 5 16 14 6 13 3 13 -20 -2 -25 -16 -27 -16 -21 0 4 9 7 19 7 21
0 3 4 3 9 0 4 -3 7 5 7 17 -1 12 3 34 10 48 11 22 10 27 -9 38 -18 11 -20 11
-9 0 14 -16 16 -39 2 -39 -5 0 -9 5 -7 12 1 8 -9 12 -26 12 -21 -1 -27 3 -23
13 4 8 6 17 6 19 0 2 5 4 11 4 5 0 7 -4 4 -10 -3 -5 -1 -10 5 -10 7 0 10 7 6
15 -7 19 -1 19 34 -1 21 -13 31 -14 46 -5 17 10 16 11 -7 5 -35 -7 -49 14 -23
34 15 12 15 13 2 9 -18 -6 -46 19 -33 31 4 4 10 1 12 -5 3 -7 10 -13 16 -13 7
1 2 9 -11 20 -12 10 -18 21 -13 24 5 3 14 -1 21 -9 7 -8 18 -15 24 -15 7 0 6
3 -2 9 -7 4 -12 12 -11 17 3 20 -2 34 -12 34 -8 0 -8 -5 1 -15 7 -8 8 -15 2
-15 -5 0 -15 6 -21 14 -10 11 -8 17 6 26 17 11 17 11 0 6 -11 -4 -17 -2 -15 5
2 6 8 10 13 10 24 0 26 30 3 48 -13 11 -20 22 -16 26 4 4 17 -2 29 -14 24 -22
32 -25 42 -15 7 8 -13 54 -25 54 -12 0 -10 -10 7 -27 9 -8 13 -18 10 -21 -3
-3 -18 6 -33 21 -14 15 -21 27 -14 27 7 0 10 5 7 10 -3 6 -11 10 -16 10 -6 0
-8 -4 -5 -8 6 -11 -33 -76 -41 -68 -3 3 2 17 11 30 9 14 16 30 16 35 0 13 -58
7 -72 -7 -12 -12 -1 -35 13 -27 5 4 9 2 9 -4 0 -5 -3 -11 -7 -14 -5 -2 -3 -2
4 -1 6 2 14 -4 17 -12 9 -23 8 -24 -23 -8 -25 13 -29 20 -26 49 2 24 -1 33 -8
28 -7 -3 -9 -3 -5 1 4 5 2 20 -3 34 -8 21 -7 23 5 13 10 -8 16 -9 21 -1 3 5
12 10 18 10 7 -1 2 -9 -11 -20 -14 -11 -18 -21 -12 -25 6 -4 17 -1 25 5 8 6
20 8 27 4 7 -4 10 -4 6 1 -5 5 1 14 12 22 11 8 20 22 20 32 0 10 3 21 7 25 4
3 8 14 9 22 1 9 -1 13 -4 9 -4 -4 -7 -10 -8 -13 -2 -19 -27 -68 -37 -74 -23
-15 -30 -8 -12 12 10 11 14 20 9 20 -5 0 -2 5 6 11 13 9 12 10 -2 5 -14 -4
-17 0 -15 17 1 17 -3 22 -21 21 -12 0 -21 4 -19 10 2 6 12 10 21 10 9 -1 16 2
16 7 0 12 -27 11 -35 -1 -3 -5 -11 -10 -17 -10 -6 0 -3 9 7 20 10 11 22 17 28
13 6 -3 7 -1 3 5 -4 6 -13 9 -21 5 -8 -3 -15 0 -15 6 0 6 5 11 12 11 6 0 9 3
5 6 -3 3 -13 2 -23 -4 -11 -6 -13 -11 -5 -16 6 -4 11 -12 11 -19 0 -6 -11 1
-25 16 -14 15 -29 27 -32 27 -3 0 2 -9 11 -19 10 -11 15 -24 12 -30 -4 -6 -2
-19 4 -30 5 -11 6 -22 2 -25 -5 -3 -9 0 -10 7 -3 33 -8 52 -14 57 -3 3 -8 14
-10 25 -1 11 -9 26 -16 33 -7 8 -10 18 -7 23 4 5 2 9 -3 9 -4 0 -8 14 -8 30 0
29 6 37 19 23 4 -3 2 -12 -4 -20 -9 -10 -8 -13 0 -13 7 0 10 -4 7 -9 -3 -5 1
-12 9 -15 13 -4 13 -2 5 14 -15 27 -12 38 5 16 13 -18 14 -18 12 2 0 12 -3 19
-6 17 -2 -3 -28 19 -57 47 -30 29 -60 60 -69 68 -41 41 -165 190 -157 190 4 0
14 -6 21 -12 11 -11 12 -10 6 1 -6 11 -4 13 8 8 10 -3 17 -2 17 2 0 5 -16 9
-36 9 -20 0 -40 6 -45 14 -5 7 -9 10 -9 6 0 -4 -12 5 -27 20 -15 15 -26 32
-25 37 2 6 0 7 -3 3 -9 -9 -47 10 -42 20 3 4 0 16 -4 27 -9 18 -9 18 -5 -3 3
-15 0 -22 -7 -19 -7 3 -11 9 -10 15 2 6 -4 9 -12 6 -18 -7 -20 12 -2 20 6 3
-1 3 -16 -1 -26 -5 -27 -3 -23 21 3 15 1 24 -5 21 -5 -4 -7 -11 -4 -16 9 -14
-17 -10 -37 5 -10 7 -14 16 -10 20 4 5 0 7 -8 6 -30 -5 -49 0 -66 18 -10 9
-20 16 -23 14 -12 -5 -61 17 -61 28 0 6 -4 9 -9 5 -10 -6 -91 16 -91 25 0 3
-17 6 -37 8 -20 1 -39 6 -43 10 -3 4 -13 7 -22 8 -79 4 -83 4 -68 14 9 6 10
10 3 10 -6 0 -15 -5 -18 -10 -4 -6 -12 -7 -18 -3 -7 4 -30 8 -52 9 -22 1 -42
3 -45 4 -5 1 -94 0 -190 -3 -31 -2 -44 2 -43 10 2 7 -1 12 -5 10 -5 -1 -31 23
-58 53 -216 240 -506 490 -774 666 -182 120 -224 145 -435 253 -128 65 -164
82 -295 137 -329 137 -737 245 -1090 289 -25 3 -61 8 -80 10 -40 5 -150 15
-230 20 -143 9 -519 4 -645 -9 -27 -3 -79 -8 -115 -12 -36 -3 -74 -8 -85 -10
-11 -2 -40 -7 -65 -10 -50 -6 -83 -11 -120 -19 -14 -3 -41 -8 -60 -11 -28 -5
-111 -23 -270 -59 -53 -12 -305 -90 -373 -116 -276 -103 -560 -237 -767 -364
-193 -118 -407 -273 -564 -410 l-86 -76 -14 33 c-8 18 -40 98 -71 178 -239
605 -644 1147 -1185 1587 -250 203 -586 409 -882 542 -27 11 -67 30 -91 40
-80 36 -187 76 -347 131 -58 19 -264 80 -290 85 -8 2 -53 12 -100 23 -47 11
-105 23 -130 27 -24 4 -47 8 -50 10 -3 2 -39 8 -80 14 -41 6 -85 13 -98 15
-13 3 -51 8 -85 12 -34 3 -75 8 -92 10 -225 24 -665 25 -880 0 -16 -2 -57 -7
-90 -11 -69 -8 -118 -14 -160 -22 -16 -2 -39 -6 -50 -8 -147 -22 -366 -74
-555 -132 -122 -37 -323 -110 -395 -143 -24 -11 -46 -20 -49 -20 -13 0 -279
-133 -376 -187 -156 -88 -343 -209 -441 -285 -20 -15 -42 -28 -48 -28 -6 0
-11 -4 -11 -10 0 -5 -19 -22 -42 -39 -24 -16 -59 -43 -78 -60 -28 -25 -37 -28
-50 -18 -13 10 -13 10 -2 -4 10 -14 9 -19 -10 -32 -13 -8 -37 -29 -54 -45
l-30 -31 -3 47 c-1 26 -5 61 -7 77 -3 17 -6 36 -6 43 -1 6 -5 12 -10 12 -4 0
-7 3 -6 8 3 16 -32 80 -71 128 -22 28 -37 55 -33 60 4 5 3 6 -2 2 -4 -4 -19 4
-33 18 -13 13 -27 24 -32 24 -4 0 -16 8 -27 18 -10 10 -43 29 -72 42 -29 13
-48 26 -42 30 5 3 -7 7 -26 7 -20 1 -40 6 -44 13 -4 6 -10 11 -14 10 -3 -1
-25 1 -47 5 -32 6 -39 11 -35 23 5 15 5 15 -6 2 -14 -17 -44 -15 -67 4 -12 8
-13 8 -7 -1 4 -8 1 -13 -9 -13 -10 0 -13 5 -9 13 6 9 4 9 -8 -1 -13 -10 -17
-10 -21 0 -4 10 -6 9 -6 -1 -1 -11 -5 -10 -17 5 -12 14 -14 15 -11 3 4 -12 -1
-16 -18 -16 -21 0 -28 17 -13 33 4 3 4 13 1 22 -4 9 -2 13 4 9 6 -4 13 0 16 8
4 9 1 12 -8 9 -10 -4 -12 0 -8 15 5 20 16 26 38 21 5 -1 7 2 3 6 -4 4 -2 14 4
23 9 11 6 10 -9 -2 -16 -14 -23 -15 -29 -6 -4 7 -2 15 5 17 9 3 9 8 -1 20 -10
12 -10 14 0 8 6 -4 12 -3 12 3 0 5 -4 11 -9 13 -5 2 -11 19 -14 38 -3 19 -10
48 -16 63 -6 16 -9 33 -5 38 3 5 0 8 -8 7 -8 -2 -13 6 -12 19 0 12 -3 20 -6
18 -4 -3 -15 4 -25 15 -10 11 -15 20 -10 20 4 0 -4 9 -19 21 -14 11 -24 24
-22 28 3 4 -1 8 -8 8 -15 0 -86 54 -86 66 0 5 -4 6 -9 3 -11 -7 -71 23 -71 35
0 6 -4 8 -10 4 -15 -9 -61 6 -53 18 3 5 1 7 -4 4 -6 -4 -36 -2 -67 4 -67 12
-246 17 -239 7 2 -5 -2 -8 -9 -9 -33 -2 -74 -11 -104 -24 -31 -13 -34 -12 -50
12 -13 21 -14 30 -5 45 14 23 2 24 -15 1 -11 -16 -13 -14 -12 14 1 18 5 30 9
27 4 -2 11 0 14 6 4 6 1 9 -6 8 -9 -2 -13 14 -14 57 -1 33 -5 68 -10 79 -5 12
-3 21 6 27 11 7 10 9 -5 9 -13 0 -17 5 -13 20 3 11 1 17 -4 14 -5 -3 -12 3
-16 13 -3 10 -13 26 -21 36 -8 9 -13 17 -10 17 4 0 -15 21 -41 48 -51 51 -120
102 -139 102 -7 0 -12 4 -12 9 0 5 -10 12 -22 16 -13 4 -27 9 -33 11 -5 2 -32
9 -58 16 -27 7 -46 16 -43 19 3 3 -18 5 -47 5 -46 -1 -52 2 -50 19 1 18 0 18
-11 3 -9 -12 -32 -18 -87 -21 -40 -2 -82 -8 -92 -12 -9 -4 -26 -5 -37 -2 -11
3 -18 0 -17 -6 5 -25 -30 -10 -52 23 -14 19 -30 39 -38 43 -7 4 -13 15 -13 24
0 9 -3 13 -7 10 -3 -4 -16 2 -29 14 -24 22 -79 56 -107 66 -12 3 -16 11 -12
22 5 12 3 13 -6 4 -9 -9 -22 -8 -55 2 -51 15 -50 15 -65 15 -5 0 -7 6 -3 13 6
10 4 10 -7 0 -16 -15 -33 -17 -24 -3 9 14 -8 13 -23 -2 -7 -7 -12 -8 -12 -2 0
5 -22 9 -50 10 -33 0 -47 -3 -43 -10 4 -6 0 -5 -9 1 -8 7 -18 10 -22 6 -4 -4
-35 -14 -71 -24 -47 -12 -67 -13 -75 -5 -8 8 -9 6 -5 -6 5 -12 2 -18 -8 -18
-9 0 -23 -7 -32 -16 -8 -9 -22 -13 -30 -10 -8 3 -17 0 -21 -6 -5 -7 -2 -8 7
-3 8 4 4 -2 -9 -14 -22 -22 -60 -22 -47 -1 3 6 -1 7 -10 4 -9 -4 -23 0 -33 8
-9 8 -25 18 -35 21 -10 4 -15 11 -12 17 4 6 -4 9 -17 7 -13 -1 -22 3 -21 9 1
7 -8 9 -22 6 -14 -2 -25 0 -25 6 0 5 -6 10 -12 9 -42 -1 -59 4 -52 16 5 8 2 8
-9 -2 -9 -7 -17 -9 -17 -4 0 5 -17 9 -37 8 -21 -1 -43 2 -50 7 -6 5 -14 5 -16
1z m319 -1518 c-2 -14 -16 -22 -16 -10 0 3 0 10 0 15 0 6 4 10 9 10 5 0 8 -7
7 -15z m17461 -3043 c19 -29 26 -62 12 -62 -8 0 -13 15 -10 33 0 4 -4 7 -11 7
-6 0 -8 3 -5 7 4 3 -3 17 -15 30 -16 18 -18 22 -6 18 9 -4 25 -19 35 -33z
m108 -211 c-3 -5 -1 -12 5 -16 5 -3 15 -16 21 -27 10 -18 9 -20 -5 -15 -8 3
-18 1 -22 -5 -4 -6 -3 -8 3 -5 5 3 10 0 10 -8 0 -8 -4 -15 -8 -15 -12 0 -18
26 -9 40 5 8 4 22 -1 31 -12 23 -11 29 2 29 5 0 8 -4 4 -9z m65 -41 c0 -5 -7
-10 -15 -10 -8 0 -15 5 -15 10 0 6 7 10 15 10 8 0 15 -4 15 -10z m-1 -33 c6
-8 8 -17 4 -20 -3 -4 -12 1 -20 11 -8 9 -12 12 -9 6 3 -7 -1 -18 -10 -25 -14
-11 -15 -10 -12 7 5 33 28 43 47 21z m31 -97 c0 -3 -7 -13 -14 -23 -12 -16
-14 -16 -20 -2 -3 9 -10 13 -16 10 -5 -3 -10 -2 -10 4 0 5 6 11 13 14 16 6 47
4 47 -3z m33 -86 c-10 -7 -22 -10 -27 -6 -6 3 -5 7 2 10 7 2 12 8 12 14 0 6
-6 6 -15 -2 -12 -10 -12 -15 2 -36 9 -14 11 -24 5 -24 -16 0 -34 38 -25 53 19
32 28 35 45 20 17 -15 17 -17 1 -29z m-58 -14 c8 -16 24 -34 35 -40 11 -6 18
-15 15 -21 -9 -13 -25 -11 -22 4 1 6 -5 13 -13 13 -32 3 -35 5 -22 13 11 7 11
9 -1 14 -11 4 -15 0 -12 -13 2 -11 -1 -23 -7 -26 -7 -5 -9 0 -6 14 4 13 1 22
-5 22 -7 0 -6 4 3 9 8 6 19 7 25 3 5 -3 4 2 -4 11 -15 19 -26 23 -15 5 4 -7 3
-8 -4 -4 -17 10 -15 26 3 26 8 0 21 -13 30 -30z m16 -59 c-11 -7 -9 -10 8 -16
21 -6 22 -8 5 -26 -20 -22 -33 -17 -14 6 8 10 9 15 1 15 -6 0 -11 -5 -11 -12
0 -17 -13 -1 -17 20 -1 12 5 18 20 19 16 2 18 0 8 -6z m-33 -18 c-1 -5 4 -18
11 -31 11 -20 10 -26 -6 -38 -10 -7 -14 -14 -10 -14 4 0 19 12 33 27 22 24 26
25 40 11 11 -11 12 -18 5 -22 -6 -4 -11 0 -11 8 0 13 -4 12 -20 -4 -11 -11
-24 -20 -29 -20 -4 0 -8 -10 -7 -22 1 -18 7 -23 28 -22 15 0 25 -3 22 -7 -2
-4 0 -10 4 -13 5 -3 9 -16 8 -28 -1 -16 -7 -23 -23 -24 -23 -1 -29 7 -16 19 3
4 13 1 22 -6 14 -11 14 -10 2 6 -11 14 -11 17 0 17 11 0 11 2 -1 10 -8 5 -23
7 -34 4 -11 -4 -16 -2 -12 4 3 6 2 13 -3 17 -6 3 -8 -3 -6 -13 2 -10 -2 -19
-10 -19 -9 0 -11 8 -6 26 4 14 7 52 6 84 -1 31 2 57 6 57 5 0 8 -3 7 -7z m27
-169 c-17 -18 -16 -38 3 -40 26 -3 26 -6 3 -15 -13 -5 -26 -7 -29 -4 -3 3 0 5
7 5 7 0 9 5 6 10 -10 15 -44 -33 -41 -56 2 -10 -2 -26 -8 -34 -9 -13 -9 -13 5
-3 9 7 20 9 24 5 5 -4 4 0 -1 8 -14 24 -14 47 -1 47 7 0 20 4 29 8 11 4 20 0
28 -16 11 -20 10 -21 -6 -15 -34 13 -39 11 -37 -12 2 -16 -5 -26 -22 -34 -19
-9 -22 -14 -13 -21 10 -6 9 -8 -3 -4 -13 4 -16 -1 -14 -24 2 -18 -1 -26 -8
-22 -6 4 -7 1 -2 -7 5 -8 4 -11 -1 -7 -6 3 -9 -7 -8 -24 1 -16 -1 -27 -5 -24
-4 2 -8 -2 -8 -10 0 -10 4 -12 12 -5 7 5 14 7 17 4 3 -3 9 0 14 7 4 7 3 10 -4
5 -6 -3 -13 -2 -16 3 -3 5 1 11 9 15 8 3 15 0 16 -7 0 -9 2 -9 6 1 2 6 10 9
15 6 7 -4 8 -2 4 5 -4 6 -11 9 -16 6 -4 -3 -10 2 -14 10 -7 20 8 19 29 -1 17
-17 15 -41 -3 -37 -20 5 -34 -24 -22 -46 6 -12 7 -22 3 -22 -57 -8 -64 -8 -53
6 6 8 18 11 26 8 8 -3 14 -1 14 4 0 16 -13 23 -24 14 -7 -6 -16 -4 -24 5 -7 8
-8 14 -3 14 6 0 8 7 5 15 -4 8 -1 15 4 15 6 0 9 9 7 20 -2 11 2 26 10 34 8 7
11 16 8 19 -3 4 -2 14 2 24 10 24 14 41 17 84 2 28 7 35 18 31 12 -5 13 -3 3
9 -20 25 -19 31 12 44 41 18 49 18 30 -1z m-15 -164 c0 -5 -7 -7 -15 -4 -8 4
-15 8 -15 10 0 2 7 4 15 4 8 0 15 -4 15 -10z m31 -11 c-26 -21 -35 -20 -26 2
3 8 16 15 28 16 l22 2 -24 -20z m-40 -11 c1 -7 1 -16 0 -20 0 -5 4 -8 9 -8 6
0 10 4 10 9 0 15 32 22 46 10 22 -18 5 -35 -34 -34 -59 2 -91 27 -60 46 18 12
28 11 29 -3z m-86 -137 c3 -5 1 -12 -5 -16 -18 -11 0 -25 29 -21 37 4 51 14
45 29 -3 8 4 13 17 14 21 2 21 2 -2 -23 -17 -19 -19 -23 -6 -18 9 3 17 2 17
-4 0 -14 -26 -22 -36 -12 -5 5 -15 5 -24 0 -9 -6 -11 -13 -5 -17 12 -9 13 -73
2 -90 -5 -7 -13 -13 -19 -13 -6 0 -3 9 7 20 10 11 13 20 7 20 -6 0 -9 12 -7
28 2 16 -1 35 -6 43 -8 10 -9 8 -4 -10 5 -15 3 -21 -3 -17 -6 3 -13 2 -17 -4
-3 -6 1 -13 9 -16 9 -3 13 -10 10 -16 -4 -5 -11 -5 -18 1 -16 13 -27 4 -19
-15 3 -9 0 -14 -7 -12 -15 4 -22 -30 -8 -39 6 -3 8 -1 5 4 -4 6 1 17 10 24 14
12 16 12 11 -1 -4 -10 0 -16 11 -16 9 -1 23 -4 31 -7 9 -4 22 3 34 20 11 14
14 23 6 18 -8 -5 -11 -3 -9 4 3 7 9 13 14 13 19 0 15 -20 -11 -51 -26 -31 -27
-31 -46 -14 -19 17 -20 17 -30 0 -8 -15 -12 -16 -25 -6 -12 10 -16 10 -24 -2
-13 -19 -4 32 10 59 6 11 7 23 3 27 -4 5 -2 5 5 1 7 -4 17 2 23 14 18 34 20
61 6 66 -8 3 -12 14 -9 25 6 20 18 25 28 10z m8 -134 c4 3 7 1 7 -5 0 -22 -19
-22 -31 0 -11 20 -10 21 3 11 8 -7 18 -10 21 -6z m47 -21 c0 -2 -8 -10 -17
-17 -16 -13 -17 -12 -4 4 13 16 21 21 21 13z"/>
<path d="M22559 16433 c-13 -16 -12 -17 4 -4 16 13 21 21 13 21 -2 0 -10 -8
-17 -17z"/>
<path d="M22553 16255 c0 -8 4 -12 9 -9 5 3 6 10 3 15 -9 13 -12 11 -12 -6z"/>
<path d="M22605 16250 c-3 -5 -1 -10 4 -10 6 0 11 5 11 10 0 6 -2 10 -4 10 -3
0 -8 -4 -11 -10z"/>
<path d="M5085 21730 c10 -11 20 -20 23 -20 3 0 -3 9 -13 20 -10 11 -20 20
-23 20 -3 0 3 -9 13 -20z"/>
<path d="M5151 21737 c-8 -10 -7 -14 2 -14 8 0 14 6 14 14 0 7 -1 13 -2 13 -2
0 -8 -6 -14 -13z"/>
<path d="M5515 21741 c-3 -5 -2 -12 3 -15 5 -3 9 1 9 9 0 17 -3 19 -12 6z"/>
<path d="M3793 21725 c0 -8 4 -12 9 -9 5 3 6 10 3 15 -9 13 -12 11 -12 -6z"/>
<path d="M4866 21732 c-3 -5 1 -9 9 -9 8 0 12 4 9 9 -3 4 -7 8 -9 8 -2 0 -6
-4 -9 -8z"/>
<path d="M5184 21732 c4 -3 14 -7 22 -8 9 -1 13 0 10 4 -4 3 -14 7 -22 8 -9 1
-13 0 -10 -4z"/>
<path d="M5547 21729 c7 -7 15 -10 18 -7 3 3 -2 9 -12 12 -14 6 -15 5 -6 -5z"/>
<path d="M5730 21729 c0 -5 5 -7 10 -4 6 3 10 8 10 11 0 2 -4 4 -10 4 -5 0
-10 -5 -10 -11z"/>
<path d="M5876 21725 c-9 -26 -7 -32 5 -12 6 10 9 21 6 23 -2 3 -7 -2 -11 -11z"/>
<path d="M4174 21712 c4 -3 14 -7 22 -8 9 -1 13 0 10 4 -4 3 -14 7 -22 8 -9 1
-13 0 -10 -4z"/>
<path d="M4295 21710 c-3 -5 -1 -10 4 -10 6 0 11 5 11 10 0 6 -2 10 -4 10 -3
0 -8 -4 -11 -10z"/>
<path d="M5795 21709 c-3 -4 2 -6 10 -5 21 3 28 13 10 13 -9 0 -18 -4 -20 -8z"/>
<path d="M4969 21694 c-11 -14 -24 -52 -14 -42 2 1 3 6 2 9 -1 4 7 16 17 28
11 12 17 21 14 21 -3 0 -12 -7 -19 -16z"/>
<path d="M4270 21676 c0 -2 7 -7 16 -10 8 -3 12 -2 9 4 -6 10 -25 14 -25 6z"/>
<path d="M5666 21672 c-2 -4 4 -8 14 -8 10 0 16 4 14 8 -3 4 -9 8 -14 8 -5 0
-11 -4 -14 -8z"/>
<path d="M5775 21670 c-3 -5 -1 -10 4 -10 6 0 11 5 11 10 0 6 -2 10 -4 10 -3
0 -8 -4 -11 -10z"/>
<path d="M5815 21670 c3 -5 8 -10 11 -10 2 0 4 5 4 10 0 6 -5 10 -11 10 -5 0
-7 -4 -4 -10z"/>
<path d="M5894 21672 c4 -3 14 -7 22 -8 9 -1 13 0 10 4 -4 3 -14 7 -22 8 -9 1
-13 0 -10 -4z"/>
<path d="M3990 21651 c0 -6 4 -13 10 -16 6 -3 7 1 4 9 -7 18 -14 21 -14 7z"/>
<path d="M5006 21648 c3 -4 9 -8 15 -8 5 0 9 4 9 8 0 5 -7 9 -15 9 -8 0 -12
-4 -9 -9z"/>
<path d="M5749 21647 c6 -8 7 -18 3 -22 -4 -5 -1 -5 6 -1 10 6 10 11 1 22 -6
8 -14 14 -16 14 -3 0 0 -6 6 -13z"/>
<path d="M3793 21635 c0 -8 4 -12 9 -9 5 3 6 10 3 15 -9 13 -12 11 -12 -6z"/>
<path d="M4116 21617 c3 -10 9 -15 12 -12 3 3 0 11 -7 18 -10 9 -11 8 -5 -6z"/>
<path d="M5990 21626 c0 -2 8 -10 18 -17 15 -13 16 -12 3 4 -13 16 -21 21 -21
13z"/>
<path d="M5774 21612 c4 -3 14 -7 22 -8 9 -1 13 0 10 4 -4 3 -14 7 -22 8 -9 1
-13 0 -10 -4z"/>
<path d="M4073 21595 c0 -8 10 -23 21 -32 21 -18 21 -18 4 2 -9 11 -17 24 -16
28 0 5 -2 11 -4 13 -3 2 -5 -3 -5 -11z"/>
<path d="M6175 21601 c-3 -5 -2 -12 3 -15 5 -3 9 1 9 9 0 17 -3 19 -12 6z"/>
<path d="M3734 21588 c-4 -7 -4 -10 1 -6 4 4 15 2 24 -5 14 -11 14 -10 2 6
-16 20 -18 21 -27 5z"/>
<path d="M3816 21588 c3 -5 10 -6 15 -3 13 9 11 12 -6 12 -8 0 -12 -4 -9 -9z"/>
<path d="M5879 21598 c-5 -13 -5 -60 0 -63 4 -2 7 12 7 31 0 29 -3 42 -7 32z"/>
<path d="M6093 21579 c-2 -23 3 -25 10 -4 4 8 3 16 -1 19 -4 3 -9 -4 -9 -15z"/>
<path d="M6136 21592 c-2 -4 -1 -14 4 -22 7 -11 9 -9 7 8 -1 24 -3 26 -11 14z"/>
<path d="M3589 21573 c-13 -16 -12 -17 4 -4 9 7 17 15 17 17 0 8 -8 3 -21 -13z"/>
<path d="M4170 21575 c-11 -13 -11 -18 0 -28 10 -9 11 -9 6 1 -4 7 -2 19 4 27
7 8 10 15 7 15 -2 0 -10 -7 -17 -15z"/>
<path d="M4125 21570 c-3 -6 1 -7 9 -4 18 7 21 14 7 14 -6 0 -13 -4 -16 -10z"/>
<path d="M4060 21556 c0 -2 8 -10 18 -17 15 -13 16 -12 3 4 -13 16 -21 21 -21
13z"/>
<path d="M5830 21556 c0 -2 7 -7 16 -10 8 -3 12 -2 9 4 -6 10 -25 14 -25 6z"/>
<path d="M5900 21556 c0 -2 8 -10 18 -17 15 -13 16 -12 3 4 -13 16 -21 21 -21
13z"/>
<path d="M6175 21550 c-3 -5 -1 -10 4 -10 6 0 11 5 11 10 0 6 -2 10 -4 10 -3
0 -8 -4 -11 -10z"/>
<path d="M6206 21548 c3 -5 10 -6 15 -3 13 9 11 12 -6 12 -8 0 -12 -4 -9 -9z"/>
<path d="M3575 21521 c-3 -5 -2 -12 3 -15 5 -3 9 1 9 9 0 17 -3 19 -12 6z"/>
<path d="M6290 21510 c0 -5 5 -10 11 -10 5 0 7 5 4 10 -3 6 -8 10 -11 10 -2 0
-4 -4 -4 -10z"/>
<path d="M6335 21510 c-3 -5 -1 -10 4 -10 6 0 11 5 11 10 0 6 -2 10 -4 10 -3
0 -8 -4 -11 -10z"/>
<path d="M3104 21492 c4 -3 14 -7 22 -8 9 -1 13 0 10 4 -4 3 -14 7 -22 8 -9 1
-13 0 -10 -4z"/>
<path d="M3455 21471 c-3 -5 -2 -12 3 -15 5 -3 9 1 9 9 0 17 -3 19 -12 6z"/>
<path d="M3179 21418 c-5 -18 -6 -38 -1 -34 7 8 12 36 6 36 -2 0 -4 -1 -5 -2z"/>
<path d="M3513 21395 c0 -8 4 -12 9 -9 5 3 6 10 3 15 -9 13 -12 11 -12 -6z"/>
<path d="M3215 21391 c-3 -5 -2 -12 3 -15 5 -3 9 1 9 9 0 17 -3 19 -12 6z"/>
<path d="M3295 21390 c-3 -5 -1 -10 4 -10 6 0 11 5 11 10 0 6 -2 10 -4 10 -3
0 -8 -4 -11 -10z"/>
<path d="M6533 21385 c0 -8 4 -12 9 -9 5 3 6 10 3 15 -9 13 -12 11 -12 -6z"/>
<path d="M3433 21373 c4 -3 1 -13 -6 -22 -11 -14 -10 -14 5 -2 16 12 16 31 1
31 -4 0 -3 -3 0 -7z"/>
<path d="M6560 21370 c-9 -6 -10 -10 -3 -10 6 0 15 5 18 10 8 12 4 12 -15 0z"/>
<path d="M6606 21372 c-3 -5 1 -9 9 -9 8 0 12 4 9 9 -3 4 -7 8 -9 8 -2 0 -6
-4 -9 -8z"/>
<path d="M3014 21346 c1 -8 5 -18 8 -22 4 -3 5 1 4 10 -1 8 -5 18 -8 22 -4 3
-5 -1 -4 -10z"/>
<path d="M3270 21356 c0 -2 7 -7 16 -10 8 -3 12 -2 9 4 -6 10 -25 14 -25 6z"/>
<path d="M3315 21350 c3 -5 8 -10 11 -10 2 0 4 5 4 10 0 6 -5 10 -11 10 -5 0
-7 -4 -4 -10z"/>
<path d="M3355 21341 c-3 -5 -2 -12 3 -15 5 -3 9 1 9 9 0 17 -3 19 -12 6z"/>
<path d="M3449 21333 c-13 -16 -12 -17 4 -4 9 7 17 15 17 17 0 8 -8 3 -21 -13z"/>
<path d="M3075 21331 c-3 -5 -2 -12 3 -15 5 -3 9 1 9 9 0 17 -3 19 -12 6z"/>
<path d="M3210 21330 c0 -5 5 -10 11 -10 5 0 7 5 4 10 -3 6 -8 10 -11 10 -2 0
-4 -4 -4 -10z"/>
<path d="M3274 21316 c1 -8 5 -18 8 -22 4 -3 5 1 4 10 -1 8 -5 18 -8 22 -4 3
-5 -1 -4 -10z"/>
<path d="M3389 21313 c-13 -16 -12 -17 4 -4 9 7 17 15 17 17 0 8 -8 3 -21 -13z"/>
<path d="M2935 21309 c-3 -4 2 -6 10 -5 21 3 28 13 10 13 -9 0 -18 -4 -20 -8z"/>
<path d="M3325 21310 c-3 -6 1 -7 9 -4 18 7 21 14 7 14 -6 0 -13 -4 -16 -10z"/>
<path d="M6619 21318 c-5 -18 -6 -38 -1 -34 7 8 12 36 6 36 -2 0 -4 -1 -5 -2z"/>
<path d="M3350 21295 c-7 -9 -10 -18 -6 -22 3 -3 6 -1 6 6 0 7 4 10 8 7 5 -3
9 1 9 9 0 19 -2 19 -17 0z"/>
<path d="M3415 21299 c-4 -6 -5 -12 -2 -15 2 -3 7 2 10 11 7 17 1 20 -8 4z"/>
<path d="M2960 21290 c-9 -6 -10 -10 -3 -10 6 0 15 5 18 10 8 12 4 12 -15 0z"/>
<path d="M3435 21280 c3 -6 1 -10 -6 -10 -7 0 -10 -3 -6 -6 3 -3 13 -2 22 4
16 8 16 9 1 15 -10 4 -15 3 -11 -3z"/>
<path d="M2775 21230 c3 -5 8 -10 11 -10 2 0 4 5 4 10 0 6 -5 10 -11 10 -5 0
-7 -4 -4 -10z"/>
<path d="M6650 21230 c0 -5 5 -10 11 -10 5 0 7 5 4 10 -3 6 -8 10 -11 10 -2 0
-4 -4 -4 -10z"/>
<path d="M6696 21232 c-3 -5 1 -9 9 -9 8 0 12 4 9 9 -3 4 -7 8 -9 8 -2 0 -6
-4 -9 -8z"/>
<path d="M6739 21218 c-5 -18 -6 -38 -1 -34 7 8 12 36 6 36 -2 0 -4 -1 -5 -2z"/>
<path d="M2695 21190 c-3 -5 -1 -10 4 -10 6 0 11 5 11 10 0 6 -2 10 -4 10 -3
0 -8 -4 -11 -10z"/>
<path d="M6645 21129 c-3 -4 2 -6 10 -5 21 3 28 13 10 13 -9 0 -18 -4 -20 -8z"/>
<path d="M6696 21123 c-6 -14 -5 -15 5 -6 7 7 10 15 7 18 -3 3 -9 -2 -12 -12z"/>
<path d="M6810 21109 c0 -5 5 -7 10 -4 6 3 10 8 10 11 0 2 -4 4 -10 4 -5 0
-10 -5 -10 -11z"/>
<path d="M6649 21093 c-13 -16 -12 -17 4 -4 9 7 17 15 17 17 0 8 -8 3 -21 -13z"/>
<path d="M2510 21091 c0 -6 4 -13 10 -16 6 -3 7 1 4 9 -7 18 -14 21 -14 7z"/>
<path d="M2630 21090 c0 -5 5 -10 11 -10 5 0 7 5 4 10 -3 6 -8 10 -11 10 -2 0
-4 -4 -4 -10z"/>
<path d="M6673 21077 c0 -8 6 -14 14 -14 9 0 10 4 2 14 -6 7 -12 13 -14 13 -1
0 -2 -6 -2 -13z"/>
<path d="M6713 21077 c0 -8 6 -14 14 -14 9 0 10 4 2 14 -6 7 -12 13 -14 13 -1
0 -2 -6 -2 -13z"/>
<path d="M6870 21066 c0 -2 8 -10 18 -17 15 -13 16 -12 3 4 -13 16 -21 21 -21
13z"/>
<path d="M2015 21050 c-3 -5 -1 -10 4 -10 6 0 11 5 11 10 0 6 -2 10 -4 10 -3
0 -8 -4 -11 -10z"/>
<path d="M2373 21041 c0 -11 5 -18 9 -15 4 3 5 11 1 19 -7 21 -12 19 -10 -4z"/>
<path d="M6913 21043 c0 -9 4 -10 14 -2 7 6 13 12 13 14 0 1 -6 2 -13 2 -8 0
-14 -6 -14 -14z"/>
<path d="M2410 21030 c0 -5 5 -10 11 -10 5 0 7 5 4 10 -3 6 -8 10 -11 10 -2 0
-4 -4 -4 -10z"/>
<path d="M2515 21030 c3 -5 8 -10 11 -10 2 0 4 5 4 10 0 6 -5 10 -11 10 -5 0
-7 -4 -4 -10z"/>
<path d="M6638 21033 c7 -3 16 -2 19 1 4 3 -2 6 -13 5 -11 0 -14 -3 -6 -6z"/>
<path d="M6973 21019 c-2 -23 3 -25 10 -4 4 8 3 16 -1 19 -4 3 -9 -4 -9 -15z"/>
<path d="M7019 21038 c-5 -18 -6 -38 -1 -34 7 8 12 36 6 36 -2 0 -4 -1 -5 -2z"/>
<path d="M2075 21019 c-4 -6 -5 -12 -2 -15 2 -3 7 2 10 11 7 17 1 20 -8 4z"/>
<path d="M2455 21010 c-3 -5 -1 -10 4 -10 6 0 11 5 11 10 0 6 -2 10 -4 10 -3
0 -8 -4 -11 -10z"/>
<path d="M6890 21011 c0 -6 4 -13 10 -16 6 -3 7 1 4 9 -7 18 -14 21 -14 7z"/>
<path d="M7150 21011 c0 -6 4 -13 10 -16 6 -3 7 1 4 9 -7 18 -14 21 -14 7z"/>
<path d="M6755 20990 c6 -30 16 -40 12 -12 -2 12 -6 24 -10 28 -3 4 -4 -4 -2
-16z"/>
<path d="M6710 20989 c0 -5 5 -7 10 -4 6 3 10 8 10 11 0 2 -4 4 -10 4 -5 0
-10 -5 -10 -11z"/>
<path d="M7050 20989 c0 -5 5 -7 10 -4 6 3 10 8 10 11 0 2 -4 4 -10 4 -5 0
-10 -5 -10 -11z"/>
<path d="M2573 20969 c-2 -23 3 -25 10 -4 4 8 3 16 -1 19 -4 3 -9 -4 -9 -15z"/>
<path d="M6686 20973 c-6 -14 -5 -15 5 -6 7 7 10 15 7 18 -3 3 -9 -2 -12 -12z"/>
<path d="M6725 20969 c-4 -6 -5 -12 -2 -15 2 -3 7 2 10 11 7 17 1 20 -8 4z"/>
<path d="M6830 20969 c0 -5 5 -7 10 -4 6 3 10 8 10 11 0 2 -4 4 -10 4 -5 0
-10 -5 -10 -11z"/>
<path d="M7246 20972 c-3 -5 1 -9 9 -9 8 0 12 4 9 9 -3 4 -7 8 -9 8 -2 0 -6
-4 -9 -8z"/>
<path d="M2219 20958 c-5 -18 -6 -38 -1 -34 7 8 12 36 6 36 -2 0 -4 -1 -5 -2z"/>
<path d="M2250 20950 c0 -5 5 -10 11 -10 5 0 7 5 4 10 -3 6 -8 10 -11 10 -2 0
-4 -4 -4 -10z"/>
<path d="M2295 20950 c-3 -5 -1 -10 4 -10 6 0 11 5 11 10 0 6 -2 10 -4 10 -3
0 -8 -4 -11 -10z"/>
<path d="M2464 20952 c4 -3 14 -7 22 -8 9 -1 13 0 10 4 -4 3 -14 7 -22 8 -9 1
-13 0 -10 -4z"/>
<path d="M6653 20947 c-3 -5 -2 -11 1 -14 3 -4 6 -2 6 4 0 6 8 9 19 6 10 -3
21 -1 24 4 3 4 -6 8 -20 8 -14 0 -27 -4 -30 -8z"/>
<path d="M7154 20952 c4 -3 14 -7 22 -8 9 -1 13 0 10 4 -4 3 -14 7 -22 8 -9 1
-13 0 -10 -4z"/>
<path d="M7513 20945 c0 -8 4 -12 9 -9 5 3 6 10 3 15 -9 13 -12 11 -12 -6z"/>
<path d="M2330 20931 c0 -6 4 -13 10 -16 6 -3 7 1 4 9 -7 18 -14 21 -14 7z"/>
<path d="M2436 20932 c-3 -5 1 -9 9 -9 8 0 12 4 9 9 -3 4 -7 8 -9 8 -2 0 -6
-4 -9 -8z"/>
<path d="M2550 20930 c0 -5 5 -10 11 -10 5 0 7 5 4 10 -3 6 -8 10 -11 10 -2 0
-4 -4 -4 -10z"/>
<path d="M6670 20910 c0 -5 7 -7 15 -4 8 4 15 8 15 10 0 2 -7 4 -15 4 -8 0
-15 -4 -15 -10z"/>
<path d="M7215 20910 c-3 -5 -1 -10 4 -10 6 0 11 5 11 10 0 6 -2 10 -4 10 -3
0 -8 -4 -11 -10z"/>
<path d="M1990 20890 c0 -5 5 -10 11 -10 5 0 7 5 4 10 -3 6 -8 10 -11 10 -2 0
-4 -4 -4 -10z"/>
<path d="M2047 20889 c7 -7 15 -10 18 -7 3 3 -2 9 -12 12 -14 6 -15 5 -6 -5z"/>
<path d="M7335 20881 c-3 -5 -2 -12 3 -15 5 -3 9 1 9 9 0 17 -3 19 -12 6z"/>
<path d="M1710 20851 c0 -6 4 -13 10 -16 6 -3 7 1 4 9 -7 18 -14 21 -14 7z"/>
<path d="M2053 20825 c0 -8 4 -12 9 -9 5 3 6 10 3 15 -9 13 -12 11 -12 -6z"/>
<path d="M7355 20830 c-3 -5 -1 -10 4 -10 6 0 11 5 11 10 0 6 -2 10 -4 10 -3
0 -8 -4 -11 -10z"/>
<path d="M7559 20803 c-13 -16 -12 -17 4 -4 16 13 21 21 13 21 -2 0 -10 -8
-17 -17z"/>
<path d="M7395 20790 c-3 -5 -1 -10 4 -10 6 0 11 5 11 10 0 6 -2 10 -4 10 -3
0 -8 -4 -11 -10z"/>
<path d="M7455 20749 c-3 -4 2 -6 10 -5 21 3 28 13 10 13 -9 0 -18 -4 -20 -8z"/>
<path d="M1956 20728 c3 -5 10 -6 15 -3 13 9 11 12 -6 12 -8 0 -12 -4 -9 -9z"/>
<path d="M1826 20688 c3 -5 10 -6 15 -3 13 9 11 12 -6 12 -8 0 -12 -4 -9 -9z"/>
<path d="M7490 20670 c0 -5 5 -10 11 -10 5 0 7 5 4 10 -3 6 -8 10 -11 10 -2 0
-4 -4 -4 -10z"/>
<path d="M1890 20649 c0 -5 5 -7 10 -4 6 3 10 8 10 11 0 2 -4 4 -10 4 -5 0
-10 -5 -10 -11z"/>
<path d="M1860 20610 c-8 -5 -10 -10 -5 -10 6 0 17 5 25 10 8 5 11 10 5 10 -5
0 -17 -5 -25 -10z"/>
<path d="M7673 20535 c0 -8 4 -12 9 -9 5 3 6 10 3 15 -9 13 -12 11 -12 -6z"/>
<path d="M1835 20519 c-4 -6 -5 -12 -2 -15 2 -3 7 2 10 11 7 17 1 20 -8 4z"/>
<path d="M7715 20519 c-4 -6 -5 -12 -2 -15 2 -3 7 2 10 11 7 17 1 20 -8 4z"/>
<path d="M1800 20470 c-12 -7 -10 -9 7 -7 12 0 19 5 17 9 -6 10 -6 10 -24 -2z"/>
<path d="M1855 20470 c3 -5 8 -10 11 -10 2 0 4 5 4 10 0 6 -5 10 -11 10 -5 0
-7 -4 -4 -10z"/>
<path d="M7555 20473 c3 -3 0 -12 -7 -20 -6 -7 -8 -16 -4 -20 3 -3 6 -1 6 6 0
7 4 10 9 7 11 -7 9 21 -2 29 -4 3 -5 2 -2 -2z"/>
<path d="M7589 20468 c11 -15 11 -21 0 -35 -12 -17 -12 -17 6 0 19 17 19 17 0
35 -18 16 -18 16 -6 0z"/>
<path d="M1855 20430 c3 -5 8 -10 11 -10 2 0 4 5 4 10 0 6 -5 10 -11 10 -5 0
-7 -4 -4 -10z"/>
<path d="M1590 20426 c0 -2 8 -10 18 -17 15 -13 16 -12 3 4 -13 16 -21 21 -21
13z"/>
<path d="M7605 20410 c-3 -6 1 -7 9 -4 18 7 21 14 7 14 -6 0 -13 -4 -16 -10z"/>
<path d="M7631 20397 c-8 -10 -7 -14 2 -14 8 0 14 6 14 14 0 7 -1 13 -2 13 -2
0 -8 -6 -14 -13z"/>
<path d="M7674 20395 c1 -8 8 -21 16 -28 12 -10 12 -9 2 4 -6 9 -9 18 -6 21 3
3 1 9 -4 12 -6 3 -9 -1 -8 -9z"/>
<path d="M1830 20386 c0 -2 8 -10 18 -17 15 -13 16 -12 3 4 -13 16 -21 21 -21
13z"/>
<path d="M7523 20380 c-13 -5 -23 -11 -23 -14 0 -7 40 6 46 15 6 10 6 10 -23
-1z"/>
<path d="M7556 20365 c-3 -8 -1 -15 4 -15 6 0 10 7 10 15 0 8 -2 15 -4 15 -2
0 -6 -7 -10 -15z"/>
<path d="M7696 20337 c3 -10 9 -15 12 -12 3 3 0 11 -7 18 -10 9 -11 8 -5 -6z"/>
<path d="M1750 20331 c0 -6 4 -13 10 -16 6 -3 7 1 4 9 -7 18 -14 21 -14 7z"/>
<path d="M7726 20328 c3 -5 10 -6 15 -3 13 9 11 12 -6 12 -8 0 -12 -4 -9 -9z"/>
<path d="M7850 20329 c0 -5 5 -7 10 -4 6 3 10 8 10 11 0 2 -4 4 -10 4 -5 0
-10 -5 -10 -11z"/>
<path d="M1873 20277 c0 -8 6 -14 14 -14 9 0 10 4 2 14 -6 7 -12 13 -14 13 -1
0 -2 -6 -2 -13z"/>
<path d="M1775 20270 c3 -5 8 -10 11 -10 2 0 4 5 4 10 0 6 -5 10 -11 10 -5 0
-7 -4 -4 -10z"/>
<path d="M7930 20269 c0 -5 5 -7 10 -4 6 3 10 8 10 11 0 2 -4 4 -10 4 -5 0
-10 -5 -10 -11z"/>
<path d="M1877 20203 c-10 -9 -9 -23 1 -23 5 0 9 7 9 15 0 17 -1 18 -10 8z"/>
<path d="M1750 20170 c0 -5 5 -10 11 -10 5 0 7 5 4 10 -3 6 -8 10 -11 10 -2 0
-4 -4 -4 -10z"/>
<path d="M1893 20168 c-4 -7 -1 -8 7 -3 10 6 12 4 6 -10 -6 -16 -4 -16 11 -4
10 7 19 14 21 15 1 1 -6 4 -18 7 -11 3 -23 0 -27 -5z"/>
<path d="M1955 20139 c6 -32 13 -34 13 -4 0 14 -4 25 -9 25 -4 0 -6 -10 -4
-21z"/>
<path d="M1791 20137 c2 -2 11 -8 20 -15 12 -9 16 -9 16 1 0 7 -9 14 -20 14
-11 1 -18 1 -16 0z"/>
<path d="M1980 20131 c0 -6 4 -13 10 -16 6 -3 7 1 4 9 -7 18 -14 21 -14 7z"/>
<path d="M1915 20120 c3 -5 8 -10 11 -10 2 0 4 5 4 10 0 6 -5 10 -11 10 -5 0
-7 -4 -4 -10z"/>
<path d="M1690 20110 c0 -5 5 -10 11 -10 5 0 7 5 4 10 -3 6 -8 10 -11 10 -2 0
-4 -4 -4 -10z"/>
<path d="M1800 20095 c0 -2 6 -8 13 -14 10 -8 14 -7 14 2 0 8 -6 14 -14 14 -7
0 -13 -1 -13 -2z"/>
<path d="M1654 20072 c4 -3 14 -7 22 -8 9 -1 13 0 10 4 -4 3 -14 7 -22 8 -9 1
-13 0 -10 -4z"/>
<path d="M8133 20059 c-2 -23 3 -25 10 -4 4 8 3 16 -1 19 -4 3 -9 -4 -9 -15z"/>
<path d="M1650 20029 c0 -5 5 -7 10 -4 6 3 10 8 10 11 0 2 -4 4 -10 4 -5 0
-10 -5 -10 -11z"/>
<path d="M1715 20030 c-3 -5 -1 -10 4 -10 6 0 11 5 11 10 0 6 -2 10 -4 10 -3
0 -8 -4 -11 -10z"/>
<path d="M1510 20016 c0 -2 7 -7 16 -10 8 -3 12 -2 9 4 -6 10 -25 14 -25 6z"/>
<path d="M1433 19963 c0 -9 4 -10 14 -2 7 6 13 12 13 14 0 1 -6 2 -13 2 -8 0
-14 -6 -14 -14z"/>
<path d="M1576 19952 c-3 -4 4 -9 15 -9 23 -2 25 3 4 10 -8 4 -16 3 -19 -1z"/>
<path d="M8190 19869 c0 -5 5 -7 10 -4 6 3 10 8 10 11 0 2 -4 4 -10 4 -5 0
-10 -5 -10 -11z"/>
<path d="M8215 19841 c-3 -5 -2 -12 3 -15 5 -3 9 1 9 9 0 17 -3 19 -12 6z"/>
<path d="M1430 19666 c0 -2 8 -10 18 -17 15 -13 16 -12 3 4 -13 16 -21 21 -21
13z"/>
<path d="M1490 19630 c0 -5 5 -10 11 -10 5 0 7 5 4 10 -3 6 -8 10 -11 10 -2 0
-4 -4 -4 -10z"/>
<path d="M1495 19590 c3 -5 8 -10 11 -10 2 0 4 5 4 10 0 6 -5 10 -11 10 -5 0
-7 -4 -4 -10z"/>
<path d="M1456 19468 c3 -5 10 -6 15 -3 13 9 11 12 -6 12 -8 0 -12 -4 -9 -9z"/>
<path d="M1520 19470 c-9 -6 -10 -10 -3 -10 6 0 15 5 18 10 8 12 4 12 -15 0z"/>
<path d="M1416 19352 c-3 -4 4 -9 15 -9 23 -2 25 3 4 10 -8 4 -16 3 -19 -1z"/>
<path d="M1516 19352 c-3 -5 1 -9 9 -9 8 0 12 4 9 9 -3 4 -7 8 -9 8 -2 0 -6
-4 -9 -8z"/>
<path d="M1475 19321 c-3 -5 -2 -12 3 -15 5 -3 9 1 9 9 0 17 -3 19 -12 6z"/>
<path d="M1551 19277 c-8 -10 -7 -14 2 -14 8 0 14 6 14 14 0 7 -1 13 -2 13 -2
0 -8 -6 -14 -13z"/>
<path d="M1599 19268 c-5 -9 -5 -48 -1 -43 6 6 11 45 5 45 -2 0 -4 -1 -4 -2z"/>
<path d="M1506 19250 c5 -8 9 -18 9 -22 0 -3 3 -9 7 -13 3 -4 5 0 4 9 -1 9 -8
22 -16 29 -10 10 -11 9 -4 -3z"/>
<path d="M1628 19253 c7 -3 16 -2 19 1 4 3 -2 6 -13 5 -11 0 -14 -3 -6 -6z"/>
<path d="M1552 19224 c10 -10 20 -16 22 -13 3 3 -5 11 -17 18 -21 13 -21 12
-5 -5z"/>
<path d="M1486 19212 c-3 -5 1 -9 9 -9 8 0 12 4 9 9 -3 4 -7 8 -9 8 -2 0 -6
-4 -9 -8z"/>
<path d="M1440 19190 c-9 -6 -10 -10 -3 -10 6 0 15 5 18 10 8 12 4 12 -15 0z"/>
<path d="M1435 19151 c-3 -5 -2 -12 3 -15 5 -3 9 1 9 9 0 17 -3 19 -12 6z"/>
<path d="M1375 19070 c3 -5 8 -10 11 -10 2 0 4 5 4 10 0 6 -5 10 -11 10 -5 0
-7 -4 -4 -10z"/>
<path d="M1294 18912 c4 -3 14 -7 22 -8 9 -1 13 0 10 4 -4 3 -14 7 -22 8 -9 1
-13 0 -10 -4z"/>
<path d="M1296 18792 c-3 -5 1 -9 9 -9 8 0 12 4 9 9 -3 4 -7 8 -9 8 -2 0 -6
-4 -9 -8z"/>
<path d="M1250 18590 c0 -5 5 -10 11 -10 5 0 7 5 4 10 -3 6 -8 10 -11 10 -2 0
-4 -4 -4 -10z"/>
<path d="M1347 18589 c7 -7 15 -10 18 -7 3 3 -2 9 -12 12 -14 6 -15 5 -6 -5z"/>
<path d="M1362 18548 c-15 -15 -15 -28 0 -28 6 0 8 3 5 7 -4 3 -2 12 4 20 14
16 7 17 -9 1z"/>
<path d="M1393 18553 c4 -3 1 -13 -6 -22 -11 -14 -10 -14 5 -2 16 12 16 31 1
31 -4 0 -3 -3 0 -7z"/>
<path d="M1235 18509 c-3 -4 2 -6 10 -5 21 3 28 13 10 13 -9 0 -18 -4 -20 -8z"/>
<path d="M1295 18510 c3 -5 8 -10 11 -10 2 0 4 5 4 10 0 6 -5 10 -11 10 -5 0
-7 -4 -4 -10z"/>
<path d="M1375 18500 c-4 -6 -12 -7 -18 -4 -7 4 -9 4 -5 -1 4 -4 2 -15 -4 -24
-10 -12 -7 -12 8 2 11 9 23 15 26 12 2 -3 5 2 5 10 0 18 -3 19 -12 5z"/>
<path d="M1250 18469 c0 -5 5 -7 10 -4 6 3 10 8 10 11 0 2 -4 4 -10 4 -5 0
-10 -5 -10 -11z"/>
<path d="M1366 18451 c-12 -13 -14 -21 -6 -26 6 -4 14 -4 17 -1 4 3 0 6 -7 6
-9 0 -8 6 5 20 10 11 16 20 13 20 -3 0 -13 -9 -22 -19z"/>
<path d="M1195 18450 c-3 -5 -1 -10 4 -10 6 0 11 5 11 10 0 6 -2 10 -4 10 -3
0 -8 -4 -11 -10z"/>
<path d="M1399 18458 c-5 -18 -6 -38 -1 -34 7 8 12 36 6 36 -2 0 -4 -1 -5 -2z"/>
<path d="M1320 18430 c-9 -6 -10 -10 -3 -10 6 0 15 5 18 10 8 12 4 12 -15 0z"/>
<path d="M1213 18395 c0 -8 4 -12 9 -9 5 3 6 10 3 15 -9 13 -12 11 -12 -6z"/>
<path d="M1310 18396 c0 -2 7 -7 16 -10 8 -3 12 -2 9 4 -6 10 -25 14 -25 6z"/>
<path d="M1066 18332 c-3 -5 1 -9 9 -9 8 0 15 4 15 9 0 4 -4 8 -9 8 -6 0 -12
-4 -15 -8z"/>
<path d="M1221 18246 c-9 -11 -9 -16 1 -22 7 -4 10 -4 6 1 -4 4 -3 14 3 22 6
7 9 13 6 13 -2 0 -10 -6 -16 -14z"/>
<path d="M1035 18221 c-3 -5 -2 -12 3 -15 5 -3 9 1 9 9 0 17 -3 19 -12 6z"/>
<path d="M1236 18188 c3 -5 10 -6 15 -3 13 9 11 12 -6 12 -8 0 -12 -4 -9 -9z"/>
<path d="M1213 18155 c0 -8 4 -12 9 -9 5 3 6 10 3 15 -9 13 -12 11 -12 -6z"/>
<path d="M1235 18071 c-3 -5 -2 -12 3 -15 5 -3 9 1 9 9 0 17 -3 19 -12 6z"/>
<path d="M1166 18048 c3 -5 10 -6 15 -3 13 9 11 12 -6 12 -8 0 -12 -4 -9 -9z"/>
<path d="M1215 18030 c-3 -5 -1 -10 4 -10 6 0 11 5 11 10 0 6 -2 10 -4 10 -3
0 -8 -4 -11 -10z"/>
<path d="M1159 18003 c-13 -16 -12 -17 4 -4 16 13 21 21 13 21 -2 0 -10 -8
-17 -17z"/>
<path d="M1195 17829 c-3 -4 2 -6 10 -5 21 3 28 13 10 13 -9 0 -18 -4 -20 -8z"/>
<path d="M1066 17808 c3 -5 10 -6 15 -3 13 9 11 12 -6 12 -8 0 -12 -4 -9 -9z"/>
<path d="M1294 17768 c-4 -7 -4 -10 1 -6 4 4 15 2 24 -5 14 -11 14 -10 2 6
-16 20 -18 21 -27 5z"/>
<path d="M21830 17771 c0 -6 4 -13 10 -16 6 -3 7 1 4 9 -7 18 -14 21 -14 7z"/>
<path d="M21914 17736 c1 -8 5 -18 8 -22 4 -3 5 1 4 10 -1 8 -5 18 -8 22 -4 3
-5 -1 -4 -10z"/>
<path d="M1294 17732 c4 -3 14 -7 22 -8 9 -1 13 0 10 4 -4 3 -14 7 -22 8 -9 1
-13 0 -10 -4z"/>
<path d="M21736 17723 c-6 -14 -5 -15 5 -6 7 7 10 15 7 18 -3 3 -9 -2 -12 -12z"/>
<path d="M1256 17708 c3 -5 10 -6 15 -3 13 9 11 12 -6 12 -8 0 -12 -4 -9 -9z"/>
<path d="M22026 17708 c3 -5 10 -6 15 -3 13 9 11 12 -6 12 -8 0 -12 -4 -9 -9z"/>
<path d="M21825 17689 c-3 -4 2 -6 10 -5 21 3 28 13 10 13 -9 0 -18 -4 -20 -8z"/>
<path d="M21910 17690 c0 -5 5 -10 11 -10 5 0 7 5 4 10 -3 6 -8 10 -11 10 -2
0 -4 -4 -4 -10z"/>
<path d="M21953 17681 c0 -11 5 -18 9 -15 4 3 5 11 1 19 -7 21 -12 19 -10 -4z"/>
<path d="M1253 17675 c0 -8 4 -12 9 -9 5 3 6 10 3 15 -9 13 -12 11 -12 -6z"/>
<path d="M1353 17665 c0 -8 4 -12 9 -9 5 3 6 10 3 15 -9 13 -12 11 -12 -6z"/>
<path d="M21866 17672 c-2 -4 4 -8 14 -8 10 0 16 4 14 8 -3 4 -9 8 -14 8 -5 0
-11 -4 -14 -8z"/>
<path d="M21985 17670 c-3 -6 1 -7 9 -4 18 7 21 14 7 14 -6 0 -13 -4 -16 -10z"/>
<path d="M22090 17670 c0 -5 5 -10 11 -10 5 0 7 5 4 10 -3 6 -8 10 -11 10 -2
0 -4 -4 -4 -10z"/>
<path d="M22055 17650 c-3 -5 -1 -10 4 -10 6 0 11 5 11 10 0 6 -2 10 -4 10 -3
0 -8 -4 -11 -10z"/>
<path d="M22196 17632 c-3 -4 4 -9 15 -9 23 -2 25 3 4 10 -8 4 -16 3 -19 -1z"/>
<path d="M1339 17628 c-5 -18 -6 -38 -1 -34 7 8 12 36 6 36 -2 0 -4 -1 -5 -2z"/>
<path d="M1413 17605 c0 -7 6 -11 14 -8 7 3 13 6 13 8 0 2 -6 5 -13 8 -8 3
-14 -1 -14 -8z"/>
<path d="M22035 17610 c-3 -5 -1 -10 4 -10 6 0 11 5 11 10 0 6 -2 10 -4 10 -3
0 -8 -4 -11 -10z"/>
<path d="M22150 17606 c0 -2 8 -10 18 -17 15 -13 16 -12 3 4 -13 16 -21 21
-21 13z"/>
<path d="M1256 17588 c3 -4 11 -5 19 -1 21 7 19 12 -4 10 -11 0 -18 -5 -15 -9z"/>
<path d="M1410 17571 c0 -6 4 -13 10 -16 6 -3 7 1 4 9 -7 18 -14 21 -14 7z"/>
<path d="M1436 17567 c3 -10 9 -15 12 -12 3 3 0 11 -7 18 -10 9 -11 8 -5 -6z"/>
<path d="M22090 17576 c0 -2 7 -7 16 -10 8 -3 12 -2 9 4 -6 10 -25 14 -25 6z"/>
<path d="M22139 17563 c-12 -16 -12 -17 2 -6 9 7 20 9 24 5 5 -4 5 -1 1 6 -9
16 -11 15 -27 -5z"/>
<path d="M22234 17556 c1 -8 5 -18 8 -22 4 -3 5 1 4 10 -1 8 -5 18 -8 22 -4 3
-5 -1 -4 -10z"/>
<path d="M1314 17530 c0 -13 4 -16 10 -10 7 7 7 13 0 20 -6 6 -10 3 -10 -10z"/>
<path d="M22090 17540 c-9 -6 -10 -10 -3 -10 6 0 15 5 18 10 8 12 4 12 -15 0z"/>
<path d="M1190 17531 c0 -6 4 -13 10 -16 6 -3 7 1 4 9 -7 18 -14 21 -14 7z"/>
<path d="M1350 17532 c0 -5 7 -9 15 -9 8 0 12 4 9 9 -3 4 -9 8 -15 8 -5 0 -9
-4 -9 -8z"/>
<path d="M1390 17530 c0 -5 5 -10 10 -10 6 0 10 5 10 10 0 6 -4 10 -10 10 -5
0 -10 -4 -10 -10z"/>
<path d="M22180 17530 c8 -5 20 -10 25 -10 6 0 3 5 -5 10 -8 5 -19 10 -25 10
-5 0 -3 -5 5 -10z"/>
<path d="M22130 17510 c-9 -6 -10 -10 -3 -10 6 0 15 5 18 10 8 12 4 12 -15 0z"/>
<path d="M22177 17490 c-4 -14 1 -23 16 -31 19 -9 20 -8 7 3 -9 7 -14 21 -12
31 5 24 -4 22 -11 -3z"/>
<path d="M22218 17498 c15 -15 16 -31 0 -22 -7 4 -8 3 -4 -4 4 -6 13 -9 22 -5
13 5 13 8 -2 24 -9 11 -20 19 -23 19 -3 0 0 -5 7 -12z"/>
<path d="M22295 17500 c-4 -6 -11 -7 -17 -4 -7 4 -8 2 -4 -5 6 -9 11 -9 22 0
14 11 18 19 10 19 -3 0 -8 -5 -11 -10z"/>
<path d="M22150 17489 c0 -5 5 -7 10 -4 6 3 10 8 10 11 0 2 -4 4 -10 4 -5 0
-10 -5 -10 -11z"/>
<path d="M22267 17463 c6 -25 18 -30 29 -10 4 6 4 9 -1 5 -4 -4 -14 0 -21 10
-12 15 -12 15 -7 -5z"/>
<path d="M22410 17470 c0 -5 5 -10 11 -10 5 0 7 5 4 10 -3 6 -8 10 -11 10 -2
0 -4 -4 -4 -10z"/>
<path d="M22376 17443 c-6 -14 -5 -15 5 -6 7 7 10 15 7 18 -3 3 -9 -2 -12 -12z"/>
<path d="M22310 17436 c0 -2 7 -7 16 -10 8 -3 12 -2 9 4 -6 10 -25 14 -25 6z"/>
<path d="M22259 17418 c-1 -7 -1 -17 0 -22 1 -5 -5 -6 -14 -2 -10 3 -14 2 -10
-5 10 -16 28 -5 32 19 1 12 1 22 -2 22 -3 0 -6 -6 -6 -12z"/>
<path d="M22305 17415 c11 -9 19 -19 17 -23 -2 -3 1 -7 8 -8 6 -2 7 -1 0 3 -5
2 -8 9 -5 13 3 5 -5 14 -17 20 -22 11 -22 11 -3 -5z"/>
<path d="M22395 17413 c3 -3 0 -11 -5 -18 -7 -8 -5 -12 4 -12 14 0 16 22 3 32
-4 3 -5 2 -2 -2z"/>
<path d="M22429 17393 c-13 -16 -12 -17 4 -4 9 7 17 15 17 17 0 8 -8 3 -21
-13z"/>
<path d="M22270 17368 c0 -11 12 -10 30 2 12 7 10 9 -8 7 -12 0 -22 -5 -22 -9z"/>
<path d="M22308 17353 c6 -2 18 -2 25 0 6 3 1 5 -13 5 -14 0 -19 -2 -12 -5z"/>
<path d="M22358 17353 c7 -3 16 -2 19 1 4 3 -2 6 -13 5 -11 0 -14 -3 -6 -6z"/>
<path d="M22427 17353 c7 -2 9 -12 6 -21 -6 -18 -5 -17 14 8 10 13 8 16 -10
17 -12 0 -17 -1 -10 -4z"/>
<path d="M22281 17343 c-1 -17 16 -25 25 -12 4 7 3 9 -4 5 -5 -3 -13 0 -15 6
-4 9 -6 10 -6 1z"/>
<path d="M1299 17338 c-5 -18 -6 -38 -1 -34 7 8 12 36 6 36 -2 0 -4 -1 -5 -2z"/>
<path d="M22320 17324 c-11 -12 -10 -18 3 -32 10 -9 17 -11 17 -5 0 6 -6 13
-12 16 -9 3 -7 10 7 21 11 8 15 16 9 16 -6 0 -17 -7 -24 -16z"/>
<path d="M22360 17325 c-10 -12 -10 -19 -2 -27 8 -8 7 -15 -6 -25 -15 -12 -14
-13 6 -3 13 7 21 14 18 17 -3 3 2 12 12 20 15 13 15 13 -5 3 -27 -13 -32 4 -5
19 9 6 12 11 6 11 -6 0 -17 -7 -24 -15z"/>
<path d="M22459 17323 c-13 -16 -12 -17 4 -4 16 13 21 21 13 21 -2 0 -10 -8
-17 -17z"/>
<path d="M1335 17310 c3 -5 8 -10 11 -10 2 0 4 5 4 10 0 6 -5 10 -11 10 -5 0
-7 -4 -4 -10z"/>
<path d="M22413 17313 c4 -6 0 -13 -8 -17 -8 -3 -15 -11 -14 -18 0 -10 2 -10
6 0 6 15 24 16 21 0 -2 -6 5 -14 15 -16 9 -2 17 1 17 7 0 6 -7 8 -15 5 -10 -4
-13 0 -10 15 2 11 -1 24 -7 27 -6 4 -8 3 -5 -3z"/>
<path d="M22480 17310 c-9 -6 -10 -10 -3 -10 6 0 15 5 18 10 8 12 4 12 -15 0z"/>
<path d="M22513 17305 c0 -8 4 -12 9 -9 5 3 6 10 3 15 -9 13 -12 11 -12 -6z"/>
<path d="M22570 17309 c0 -5 5 -7 10 -4 6 3 10 8 10 11 0 2 -4 4 -10 4 -5 0
-10 -5 -10 -11z"/>
<path d="M22476 17277 c3 -10 9 -15 12 -12 3 3 0 11 -7 18 -10 9 -11 8 -5 -6z"/>
<path d="M22461 17254 c0 -11 3 -14 6 -6 3 7 2 16 -1 19 -3 4 -6 -2 -5 -13z"/>
<path d="M22370 17256 c0 -9 73 -76 83 -76 6 0 7 -3 4 -7 -4 -3 2 -13 14 -21
16 -11 23 -12 32 -2 9 9 8 11 -3 9 -19 -4 -75 47 -60 56 5 3 10 12 10 18 0 7
-7 4 -14 -6 -13 -17 -15 -16 -34 8 -18 22 -32 32 -32 21z"/>
<path d="M22407 17249 c7 -7 15 -10 18 -7 3 3 -2 9 -12 12 -14 6 -15 5 -6 -5z"/>
<path d="M22515 17251 c-3 -5 -2 -12 3 -15 5 -3 9 1 9 9 0 17 -3 19 -12 6z"/>
<path d="M22560 17255 c0 -2 6 -8 13 -14 10 -8 14 -7 14 2 0 8 -6 14 -14 14
-7 0 -13 -1 -13 -2z"/>
<path d="M22490 17241 c0 -6 4 -13 10 -16 6 -3 7 1 4 9 -7 18 -14 21 -14 7z"/>
<path d="M22554 17223 c16 -20 36 -23 36 -6 0 4 -3 3 -7 0 -3 -4 -16 1 -27 10
-21 18 -21 18 -2 -4z"/>
<path d="M22659 17238 c-5 -18 -6 -38 -1 -34 7 8 12 36 6 36 -2 0 -4 -1 -5 -2z"/>
<path d="M22457 17216 c-4 -9 -3 -15 2 -11 5 3 11 0 13 -7 3 -7 7 -5 11 6 4 9
3 15 -2 11 -5 -3 -11 0 -13 7 -3 7 -7 5 -11 -6z"/>
<path d="M22520 17205 c-7 -9 -11 -17 -9 -20 3 -2 10 5 17 15 14 24 10 26 -8
5z"/>
<path d="M22591 17197 c-8 -10 -7 -14 2 -14 8 0 14 6 14 14 0 7 -1 13 -2 13
-2 0 -8 -6 -14 -13z"/>
<path d="M1330 17190 c0 -5 5 -10 11 -10 5 0 7 5 4 10 -3 6 -8 10 -11 10 -2 0
-4 -4 -4 -10z"/>
<path d="M22535 17190 c-7 -11 22 -26 32 -16 4 3 -1 6 -11 6 -9 0 -14 5 -11
10 3 6 4 10 1 10 -3 0 -8 -5 -11 -10z"/>
<path d="M22596 17157 c3 -10 9 -15 12 -12 3 3 0 11 -7 18 -10 9 -11 8 -5 -6z"/>
<path d="M22565 17149 c-4 -6 -5 -12 -2 -15 2 -3 7 2 10 11 7 17 1 20 -8 4z"/>
<path d="M22530 17130 c0 -5 5 -10 10 -10 6 0 10 5 10 10 0 6 -4 10 -10 10 -5
0 -10 -4 -10 -10z"/>
<path d="M22597 17123 c-10 -9 -9 -23 1 -23 5 0 9 7 9 15 0 17 -1 18 -10 8z"/>
<path d="M22500 17110 c0 -6 4 -9 9 -5 5 3 12 -2 14 -10 4 -12 5 -12 3 1 -1
19 -26 32 -26 14z"/>
<path d="M22636 17108 c3 -5 10 -6 15 -3 13 9 11 12 -6 12 -8 0 -12 -4 -9 -9z"/>
<path d="M22550 17100 c0 -5 7 -10 16 -10 8 0 13 -4 10 -8 -3 -5 4 -16 15 -25
10 -9 19 -12 19 -7 0 6 -7 13 -15 16 -8 4 -13 10 -10 15 3 4 -4 13 -15 19 -13
7 -20 7 -20 0z"/>
<path d="M1339 17098 c-5 -18 -6 -38 -1 -34 7 8 12 36 6 36 -2 0 -4 -1 -5 -2z"/>
<path d="M22626 17086 c6 -15 4 -17 -6 -11 -9 6 -11 4 -5 -4 5 -9 10 -10 18
-2 8 8 7 14 -2 24 -10 10 -11 8 -5 -7z"/>
<path d="M22656 17083 c-6 -14 -5 -15 5 -6 7 7 10 15 7 18 -3 3 -9 -2 -12 -12z"/>
<path d="M22495 17080 c-3 -5 -1 -10 4 -10 6 0 11 5 11 10 0 6 -2 10 -4 10 -3
0 -8 -4 -11 -10z"/>
<path d="M22713 17075 c0 -8 4 -12 9 -9 5 3 6 10 3 15 -9 13 -12 11 -12 -6z"/>
<path d="M22522 17060 c-23 -21 -37 -27 -27 -10 3 6 1 10 -5 10 -14 0 -8 -22
6 -27 12 -4 60 35 52 42 -2 3 -14 -4 -26 -15z"/>
<path d="M22551 17050 c-10 -5 -9 -8 2 -13 7 -3 19 -2 26 3 10 5 9 8 -2 13 -7
3 -19 2 -26 -3z"/>
<path d="M22645 17049 c-3 -4 2 -6 10 -5 21 3 28 13 10 13 -9 0 -18 -4 -20 -8z"/>
<path d="M22614 17028 c-4 -7 -4 -10 1 -6 4 4 14 0 22 -10 13 -15 13 -15 3 6
-12 25 -16 27 -26 10z"/>
<path d="M22590 17019 c0 -5 -5 -7 -11 -3 -8 4 -8 0 0 -15 14 -25 23 -28 14
-4 -4 11 -3 14 5 9 8 -5 10 -2 6 8 -7 18 -14 21 -14 5z"/>
<path d="M22716 17003 c-6 -14 -5 -15 5 -6 7 7 10 15 7 18 -3 3 -9 -2 -12 -12z"/>
<path d="M22750 17011 c0 -6 4 -13 10 -16 6 -3 7 1 4 9 -7 18 -14 21 -14 7z"/>
<path d="M1366 16992 c-3 -5 1 -9 9 -9 8 0 12 4 9 9 -3 4 -7 8 -9 8 -2 0 -6
-4 -9 -8z"/>
<path d="M22615 16990 c-3 -4 -2 -16 2 -27 6 -16 5 -16 -10 -4 -9 7 -17 9 -17
3 0 -13 28 -23 35 -12 3 4 2 15 -1 24 -5 12 -2 15 10 10 9 -3 16 -4 16 -1 0
10 -29 16 -35 7z"/>
<path d="M22753 16963 c0 -9 4 -10 14 -2 7 6 13 12 13 14 0 1 -6 2 -13 2 -8 0
-14 -6 -14 -14z"/>
<path d="M22720 16950 c-9 -6 -10 -10 -3 -10 6 0 15 5 18 10 8 12 4 12 -15 0z"/>
<path d="M22672 16941 c-11 -7 -10 -9 3 -14 9 -4 14 -3 10 2 -3 5 1 12 7 14 7
3 9 6 3 6 -5 0 -16 -3 -23 -8z"/>
<path d="M22736 16923 c-6 -14 -5 -15 5 -6 7 7 10 15 7 18 -3 3 -9 -2 -12 -12z"/>
<path d="M22654 16908 c-4 -6 0 -16 9 -23 9 -7 13 -16 9 -20 -4 -5 -1 -5 7 0
12 7 11 10 -2 20 -19 14 -23 30 -5 19 7 -4 8 -3 4 4 -9 15 -13 15 -22 0z"/>
<path d="M22706 16907 c3 -10 9 -15 12 -12 3 3 0 11 -7 18 -10 9 -11 8 -5 -6z"/>
<path d="M22919 16883 c-13 -16 -12 -17 4 -4 16 13 21 21 13 21 -2 0 -10 -8
-17 -17z"/>
<path d="M22627 16854 c-10 -13 -14 -24 -9 -24 6 0 13 8 16 17 6 15 9 14 19
-6 10 -21 27 -30 27 -16 0 3 -3 4 -6 3 -3 -2 -11 9 -17 24 l-12 27 -18 -25z"/>
<path d="M1537 16863 c-10 -9 -9 -23 1 -23 5 0 9 7 9 15 0 17 -1 18 -10 8z"/>
<path d="M22784 16848 l-19 -23 23 19 c21 18 27 26 19 26 -2 0 -12 -10 -23
-22z"/>
<path d="M22690 16850 c0 -5 5 -10 10 -10 6 0 10 5 10 10 0 6 -4 10 -10 10 -5
0 -10 -4 -10 -10z"/>
<path d="M22732 16851 c-11 -7 -11 -9 0 -14 9 -3 15 1 15 9 0 8 -1 14 -1 14
-1 0 -7 -4 -14 -9z"/>
<path d="M1310 16826 c0 -2 8 -10 18 -17 15 -13 16 -12 3 4 -13 16 -21 21 -21
13z"/>
<path d="M22710 16819 c0 -5 5 -7 10 -4 6 3 10 8 10 11 0 2 -4 4 -10 4 -5 0
-10 -5 -10 -11z"/>
<path d="M22735 16809 c-6 -8 -4 -10 5 -4 10 6 12 4 6 -11 -6 -15 -5 -17 5 -6
9 9 10 15 2 23 -8 8 -13 7 -18 -2z"/>
<path d="M22770 16811 c0 -6 4 -13 10 -16 6 -3 7 1 4 9 -7 18 -14 21 -14 7z"/>
<path d="M22816 16803 c-6 -14 -5 -15 5 -6 7 7 10 15 7 18 -3 3 -9 -2 -12 -12z"/>
<path d="M1590 16785 c5 -7 6 -16 2 -21 -4 -5 -3 -6 2 -2 5 4 16 2 25 -4 12
-10 12 -7 -2 8 -9 11 -15 23 -12 26 3 2 -2 5 -10 5 -10 0 -12 -4 -5 -12z"/>
<path d="M1628 16793 c6 -2 9 -10 6 -15 -4 -7 -2 -8 5 -4 13 9 5 26 -12 25 -9
0 -8 -2 1 -6z"/>
<path d="M22850 16789 c0 -5 5 -7 10 -4 6 3 10 8 10 11 0 2 -4 4 -10 4 -5 0
-10 -5 -10 -11z"/>
<path d="M22710 16776 c0 -2 7 -7 16 -10 8 -3 12 -2 9 4 -6 10 -25 14 -25 6z"/>
<path d="M22753 16766 c-3 -6 -3 -8 2 -4 4 4 13 3 20 -2 8 -7 12 -5 12 3 0 16
-25 18 -34 3z"/>
<path d="M22830 16750 c0 -5 5 -10 11 -10 5 0 7 5 4 10 -3 6 -8 10 -11 10 -2
0 -4 -4 -4 -10z"/>
<path d="M22717 16743 c-4 -3 -7 -11 -7 -17 0 -6 5 -5 12 2 6 6 9 14 7 17 -3
3 -9 2 -12 -2z"/>
<path d="M22807 16729 c7 -7 15 -10 18 -7 3 3 -2 9 -12 12 -14 6 -15 5 -6 -5z"/>
<path d="M22674 16706 c-3 -8 -1 -23 5 -33 9 -15 10 -13 5 10 -5 23 -4 26 12
20 12 -4 15 -3 10 5 -10 16 -25 15 -32 -2z"/>
<path d="M22753 16695 c0 -14 3 -25 6 -25 4 0 7 11 7 25 0 14 -3 25 -7 25 -3
0 -6 -11 -6 -25z"/>
<path d="M1555 16701 c-3 -5 -2 -12 3 -15 5 -3 9 1 9 9 0 17 -3 19 -12 6z"/>
<path d="M1510 16696 c0 -2 7 -7 16 -10 8 -3 12 -2 9 4 -6 10 -25 14 -25 6z"/>
<path d="M22712 16691 c-11 -7 -10 -9 3 -14 9 -4 14 -3 10 2 -3 5 1 12 7 14 7
3 9 6 3 6 -5 0 -16 -3 -23 -8z"/>
<path d="M22896 16668 c3 -4 11 -5 19 -1 21 7 19 12 -4 10 -11 0 -18 -5 -15
-9z"/>
<path d="M22696 16644 c-5 -14 11 -30 21 -20 4 3 1 6 -6 6 -7 0 -9 5 -6 10 4
6 10 8 14 6 4 -3 13 -1 20 3 9 6 5 9 -12 9 -14 0 -28 -7 -31 -14z"/>
<path d="M22749 16639 c-13 -10 -19 -19 -14 -19 6 -1 1 -5 -10 -10 -18 -8 -18
-9 -2 -9 11 -1 15 -6 11 -13 -4 -6 -3 -8 4 -4 6 3 9 15 7 25 -3 17 13 32 37
35 14 2 17 13 4 13 -8 0 -25 -8 -37 -18z"/>
<path d="M22810 16656 c0 -2 7 -7 16 -10 8 -3 12 -2 9 4 -6 10 -25 14 -25 6z"/>
<path d="M22835 16619 c-4 -6 -5 -12 -2 -15 2 -3 7 2 10 11 7 17 1 20 -8 4z"/>
<path d="M22713 16570 c2 -15 8 -24 16 -22 8 2 11 -3 8 -13 -4 -8 -2 -15 4
-15 6 0 9 7 7 16 -2 8 -7 15 -13 14 -5 -1 -13 9 -17 22 -7 22 -7 22 -5 -2z"/>
<path d="M22814 16576 c1 -8 5 -18 8 -22 4 -3 5 1 4 10 -1 8 -5 18 -8 22 -4 3
-5 -1 -4 -10z"/>
<path d="M22681 16563 c-7 -8 -11 -16 -8 -19 2 -2 10 2 17 11 17 20 9 27 -9 8z"/>
<path d="M22750 16575 c0 -5 5 -17 10 -25 5 -8 10 -10 10 -5 0 6 -5 17 -10 25
-5 8 -10 11 -10 5z"/>
<path d="M1576 16552 c-2 -4 -1 -14 4 -22 7 -11 9 -9 7 8 -1 24 -3 26 -11 14z"/>
<path d="M22775 16531 c-3 -6 -3 -11 2 -10 19 3 27 -2 15 -10 -11 -7 -11 -9 1
-14 17 -6 17 17 0 34 -8 8 -13 8 -18 0z"/>
<path d="M22860 16535 c0 -2 6 -8 13 -14 10 -8 14 -7 14 2 0 8 -6 14 -14 14
-7 0 -13 -1 -13 -2z"/>
<path d="M22689 16503 c-13 -15 -12 -15 6 -6 11 6 27 8 35 6 13 -4 13 -3 0 6
-20 14 -25 14 -41 -6z"/>
<path d="M22829 16507 c6 -8 7 -18 3 -22 -4 -5 -1 -5 6 -1 10 6 10 11 1 22 -6
8 -14 14 -16 14 -3 0 0 -6 6 -13z"/>
<path d="M22755 16500 c-3 -5 -3 -10 1 -10 4 0 -1 -7 -12 -16 -18 -15 -18 -15
0 -6 11 5 21 17 22 26 3 18 -2 21 -11 6z"/>
<path d="M22708 16483 c7 -3 16 -2 19 1 4 3 -2 6 -13 5 -11 0 -14 -3 -6 -6z"/>
<path d="M22667 16466 c-4 -10 -1 -13 9 -9 10 4 12 0 8 -11 -3 -9 -10 -13 -15
-10 -5 3 -9 1 -9 -4 0 -6 7 -12 15 -16 8 -3 14 -2 14 2 -3 20 2 32 12 27 6 -4
5 2 -3 14 -15 25 -24 26 -31 7z"/>
<path d="M22796 16472 c-3 -5 1 -9 9 -9 8 0 12 4 9 9 -3 4 -7 8 -9 8 -2 0 -6
-4 -9 -8z"/>
<path d="M1591 16457 c-8 -10 -7 -14 2 -14 8 0 14 6 14 14 0 7 -1 13 -2 13 -2
0 -8 -6 -14 -13z"/>
<path d="M22753 16415 c0 -14 3 -28 8 -31 5 -3 6 3 2 12 -5 13 -3 15 8 9 12
-7 12 -6 -1 11 -8 10 -15 20 -16 22 -1 2 -1 -9 -1 -23z"/>
<path d="M22708 16423 c6 -2 10 -9 7 -14 -4 -5 1 -6 10 -2 13 5 14 7 3 14 -7
5 -17 8 -23 8 -5 0 -4 -3 3 -6z"/>
<path d="M22813 16415 c0 -8 4 -12 9 -9 5 3 6 10 3 15 -9 13 -12 11 -12 -6z"/>
<path d="M1656 16388 c3 -5 10 -6 15 -3 13 9 11 12 -6 12 -8 0 -12 -4 -9 -9z"/>
<path d="M22673 16385 c-7 -21 3 -30 20 -17 8 7 18 7 27 2 20 -13 30 -12 30 1
0 5 -4 8 -9 5 -4 -3 -17 1 -27 9 -25 19 -33 18 -41 0z m27 1 c0 -3 -4 -8 -10
-11 -5 -3 -10 -1 -10 4 0 6 5 11 10 11 6 0 10 -2 10 -4z"/>
<path d="M22813 16377 c0 -8 6 -14 14 -14 9 0 10 4 2 14 -6 7 -12 13 -14 13
-1 0 -2 -6 -2 -13z"/>
<path d="M1653 16355 c0 -8 4 -12 9 -9 5 3 6 10 3 15 -9 13 -12 11 -12 -6z"/>
<path d="M22755 16349 c-4 -6 -5 -12 -2 -15 2 -3 7 2 10 11 7 17 1 20 -8 4z"/>
<path d="M22894 16346 c1 -8 5 -18 8 -22 4 -3 5 1 4 10 -1 8 -5 18 -8 22 -4 3
-5 -1 -4 -10z"/>
<path d="M22773 16335 c-3 -9 -3 -18 -1 -21 3 -3 8 4 11 16 6 23 -1 27 -10 5z"/>
<path d="M22817 16303 c-10 -9 -9 -23 1 -23 5 0 9 7 9 15 0 17 -1 18 -10 8z"/>
<path d="M1650 16289 c0 -5 5 -7 10 -4 6 3 10 8 10 11 0 2 -4 4 -10 4 -5 0
-10 -5 -10 -11z"/>
<path d="M22896 16292 c-3 -5 1 -9 9 -9 8 0 12 4 9 9 -3 4 -7 8 -9 8 -2 0 -6
-4 -9 -8z"/>
<path d="M22702 16274 c-12 -8 -20 -20 -17 -25 10 -15 28 -10 21 6 -3 9 0 15
9 15 8 0 15 5 15 10 0 13 -2 13 -28 -6z"/>
<path d="M1695 16271 c-3 -5 -2 -12 3 -15 5 -3 9 1 9 9 0 17 -3 19 -12 6z"/>
<path d="M22757 16263 c-10 -9 -9 -23 1 -23 5 0 9 7 9 15 0 17 -1 18 -10 8z"/>
<path d="M22830 16251 c0 -6 4 -13 10 -16 6 -3 7 1 4 9 -7 18 -14 21 -14 7z"/>
<path d="M22661 16218 c-7 -11 -10 -23 -7 -26 3 -3 6 0 6 7 0 6 10 15 22 20
16 6 18 9 6 13 -8 4 -20 -2 -27 -14z"/>
<path d="M22711 16220 c-13 -11 -19 -20 -13 -20 10 0 42 27 42 36 0 7 -4 5
-29 -16z"/>
<path d="M1756 16208 c3 -5 10 -6 15 -3 13 9 11 12 -6 12 -8 0 -12 -4 -9 -9z"/>
<path d="M22755 16183 c1 -10 -2 -25 -8 -33 -9 -12 -9 -13 3 -3 16 15 24 53
11 53 -5 0 -8 -8 -6 -17z"/>
<path d="M1795 16171 c-3 -5 -2 -12 3 -15 5 -3 9 1 9 9 0 17 -3 19 -12 6z"/>
<path d="M22625 16170 c-3 -5 -2 -10 4 -10 5 0 13 5 16 10 3 6 2 10 -4 10 -5
0 -13 -4 -16 -10z"/>
<path d="M22656 16164 c-10 -25 1 -29 14 -5 6 12 7 21 1 21 -5 0 -12 -7 -15
-16z"/>
<path d="M22850 16170 c0 -5 5 -10 11 -10 5 0 7 5 4 10 -3 6 -8 10 -11 10 -2
0 -4 -4 -4 -10z"/>
<path d="M22676 16145 c-3 -9 -6 -22 -5 -28 0 -7 5 -1 10 12 5 13 8 26 5 28
-2 2 -6 -3 -10 -12z"/>
<path d="M1855 16139 c-4 -6 -5 -12 -2 -15 2 -3 7 2 10 11 7 17 1 20 -8 4z"/>
<path d="M22710 16140 c-11 -7 -11 -10 -2 -10 8 0 10 -5 6 -12 -4 -7 -3 -9 1
-5 7 6 17 37 12 37 -1 0 -9 -5 -17 -10z"/>
<path d="M1775 16130 c-3 -5 -1 -10 4 -10 6 0 11 5 11 10 0 6 -2 10 -4 10 -3
0 -8 -4 -11 -10z"/>
<path d="M22630 16120 c0 -5 5 -10 10 -10 6 0 10 5 10 10 0 6 -4 10 -10 10 -5
0 -10 -4 -10 -10z"/>
<path d="M22650 16093 c1 -13 30 -48 30 -36 0 7 -5 15 -10 18 -6 4 -8 11 -5
16 4 5 1 9 -4 9 -6 0 -11 -3 -11 -7z"/>
<path d="M22686 16092 c-3 -5 1 -9 9 -9 8 0 15 4 15 9 0 4 -4 8 -9 8 -6 0 -12
-4 -15 -8z"/>
<path d="M22779 16083 c-13 -16 -12 -17 4 -4 16 13 21 21 13 21 -2 0 -10 -8
-17 -17z"/>
<path d="M1817 16065 c-4 -8 -3 -16 1 -19 4 -3 9 4 9 15 2 23 -3 25 -10 4z"/>
<path d="M1855 16070 c-3 -5 -1 -10 4 -10 6 0 11 5 11 10 0 6 -2 10 -4 10 -3
0 -8 -4 -11 -10z"/>
<path d="M22716 16072 c-3 -5 1 -9 9 -9 8 0 12 4 9 9 -3 4 -7 8 -9 8 -2 0 -6
-4 -9 -8z"/>
<path d="M1675 16059 c-4 -6 -5 -12 -2 -15 2 -3 7 2 10 11 7 17 1 20 -8 4z"/>
<path d="M22630 16060 c0 -5 5 -10 10 -10 6 0 10 5 10 10 0 6 -4 10 -10 10 -5
0 -10 -4 -10 -10z"/>
<path d="M22775 16050 c-3 -5 -1 -10 4 -10 6 0 11 5 11 10 0 6 -2 10 -4 10 -3
0 -8 -4 -11 -10z"/>
<path d="M22695 16041 c-3 -5 0 -13 6 -17 7 -4 9 -3 5 4 -3 6 2 13 11 15 16 4
16 5 1 6 -9 0 -19 -3 -23 -8z"/>
<path d="M22675 16018 c4 -13 11 -27 16 -33 5 -5 4 5 -2 23 -12 36 -24 44 -14
10z"/>
<path d="M1790 16016 c0 -2 7 -7 16 -10 8 -3 12 -2 9 4 -6 10 -25 14 -25 6z"/>
<path d="M22636 16012 c-2 -4 0 -14 6 -22 8 -12 9 -12 5 2 -3 9 -1 19 6 22 9
3 9 5 0 5 -6 1 -14 -3 -17 -7z"/>
<path d="M1854 15992 c4 -3 14 -7 22 -8 9 -1 13 0 10 4 -4 3 -14 7 -22 8 -9 1
-13 0 -10 -4z"/>
<path d="M1970 15990 c0 -5 5 -10 11 -10 5 0 7 5 4 10 -3 6 -8 10 -11 10 -2 0
-4 -4 -4 -10z"/>
<path d="M22599 15983 c-13 -16 -12 -17 4 -4 12 10 17 10 17 1 0 -6 -9 -14
-20 -17 -11 -3 -20 -9 -20 -15 0 -10 36 7 46 23 12 20 -12 31 -27 12z"/>
<path d="M22740 15995 c0 -2 6 -8 13 -14 10 -8 14 -7 14 2 0 8 -6 14 -14 14
-7 0 -13 -1 -13 -2z"/>
<path d="M22660 15976 c0 -2 7 -7 16 -10 8 -3 12 -2 9 4 -6 10 -25 14 -25 6z"/>
<path d="M22704 15968 c-4 -7 -3 -8 5 -4 6 4 20 2 29 -6 15 -12 16 -11 3 5
-16 20 -27 22 -37 5z"/>
<path d="M22776 15963 c-6 -14 -5 -15 5 -6 7 7 10 15 7 18 -3 3 -9 -2 -12 -12z"/>
<path d="M22635 15959 c-4 -6 -5 -12 -2 -15 2 -3 7 2 10 11 7 17 1 20 -8 4z"/>
<path d="M1895 15951 c-3 -5 -2 -12 3 -15 5 -3 9 1 9 9 0 17 -3 19 -12 6z"/>
<path d="M22648 15936 c-7 -14 -17 -24 -23 -23 -5 1 -11 -6 -13 -15 -2 -10 1
-18 7 -18 6 0 7 7 4 17 -4 11 -3 14 5 9 7 -4 18 6 27 24 8 16 13 30 11 30 -3
0 -11 -11 -18 -24z"/>
<path d="M22595 15930 c-3 -5 -2 -10 4 -10 5 0 13 5 16 10 3 6 2 10 -4 10 -5
0 -13 -4 -16 -10z"/>
<path d="M22674 15925 c1 -8 6 -18 11 -22 4 -5 5 -2 0 6 -6 11 -4 13 8 8 23
-9 21 0 -2 13 -15 7 -19 7 -17 -5z"/>
<path d="M22836 15932 c-3 -5 1 -9 9 -9 8 0 12 4 9 9 -3 4 -7 8 -9 8 -2 0 -6
-4 -9 -8z"/>
<path d="M1876 15905 c-9 -26 -7 -32 5 -12 6 10 9 21 6 23 -2 3 -7 -2 -11 -11z"/>
<path d="M22750 15916 c0 -2 7 -7 16 -10 8 -3 12 -2 9 4 -6 10 -25 14 -25 6z"/>
<path d="M22709 15893 c-13 -16 -12 -17 4 -4 9 7 17 15 17 17 0 8 -8 3 -21
-13z"/>
<path d="M22651 15897 c2 -1 13 -9 24 -17 19 -14 19 -14 6 3 -7 9 -18 17 -24
17 -6 0 -8 -1 -6 -3z"/>
<path d="M22734 15888 c-4 -7 -4 -10 1 -6 4 4 15 2 24 -5 14 -11 14 -10 2 6
-16 20 -18 21 -27 5z"/>
<path d="M1975 15870 c-3 -5 -1 -10 4 -10 6 0 11 5 11 10 0 6 -2 10 -4 10 -3
0 -8 -4 -11 -10z"/>
<path d="M1990 15795 c0 -7 30 -13 34 -7 3 4 -4 9 -15 9 -10 1 -19 0 -19 -2z"/>
<path d="M2035 15770 c-3 -5 -1 -10 4 -10 6 0 11 5 11 10 0 6 -2 10 -4 10 -3
0 -8 -4 -11 -10z"/>
<path d="M2050 15730 c0 -5 5 -10 11 -10 5 0 7 5 4 10 -3 6 -8 10 -11 10 -2 0
-4 -4 -4 -10z"/>
<path d="M2150 15648 c0 -4 4 -8 9 -8 6 0 12 4 15 8 3 5 -1 9 -9 9 -8 0 -15
-4 -15 -9z"/>
<path d="M2116 15583 c-6 -14 -5 -15 5 -6 7 7 10 15 7 18 -3 3 -9 -2 -12 -12z"/>
<path d="M2670 7996 c0 -2 7 -7 16 -10 8 -3 12 -2 9 4 -6 10 -25 14 -25 6z"/>
<path d="M2686 7928 c3 -5 10 -6 15 -3 13 9 11 12 -6 12 -8 0 -12 -4 -9 -9z"/>
<path d="M2630 7910 c0 -5 5 -10 11 -10 5 0 7 5 4 10 -3 6 -8 10 -11 10 -2 0
-4 -4 -4 -10z"/>
<path d="M2654 7712 c4 -3 14 -7 22 -8 9 -1 13 0 10 4 -4 3 -14 7 -22 8 -9 1
-13 0 -10 -4z"/>
<path d="M2755 7690 c2 -27 10 -33 12 -10 1 11 -2 22 -6 24 -4 3 -7 -4 -6 -14z"/>
<path d="M2713 7615 c0 -8 4 -15 9 -15 4 0 8 4 8 9 0 6 -4 12 -8 15 -5 3 -9
-1 -9 -9z"/>
<path d="M2695 7530 c-3 -5 -1 -10 4 -10 6 0 11 5 11 10 0 6 -2 10 -4 10 -3 0
-8 -4 -11 -10z"/>
<path d="M2740 7496 c0 -2 8 -10 18 -17 15 -13 16 -12 3 4 -13 16 -21 21 -21
13z"/>
<path d="M2736 7388 c3 -5 10 -6 15 -3 13 9 11 12 -6 12 -8 0 -12 -4 -9 -9z"/>
<path d="M2796 7392 c-3 -5 1 -9 9 -9 8 0 12 4 9 9 -3 4 -7 8 -9 8 -2 0 -6 -4
-9 -8z"/>
<path d="M2734 7352 c4 -3 14 -7 22 -8 9 -1 13 0 10 4 -4 3 -14 7 -22 8 -9 1
-13 0 -10 -4z"/>
<path d="M2665 7330 c-3 -6 1 -7 9 -4 18 7 21 14 7 14 -6 0 -13 -4 -16 -10z"/>
<path d="M2826 7272 c-2 -4 4 -8 14 -8 10 0 16 4 14 8 -3 4 -9 8 -14 8 -5 0
-11 -4 -14 -8z"/>
<path d="M2777 7245 c-4 -8 -3 -16 1 -19 4 -3 9 4 9 15 2 23 -3 25 -10 4z"/>
<path d="M2773 7185 c0 -8 4 -12 9 -9 5 3 6 10 3 15 -9 13 -12 11 -12 -6z"/>
<path d="M2775 7149 c-3 -4 2 -6 10 -5 21 3 28 13 10 13 -9 0 -18 -4 -20 -8z"/>
<path d="M2835 7110 c3 -5 8 -10 11 -10 2 0 4 5 4 10 0 6 -5 10 -11 10 -5 0
-7 -4 -4 -10z"/>
<path d="M2710 7056 c0 -2 7 -7 16 -10 8 -3 12 -2 9 4 -6 10 -25 14 -25 6z"/>
<path d="M2815 7030 c3 -5 8 -10 11 -10 2 0 4 5 4 10 0 6 -5 10 -11 10 -5 0
-7 -4 -4 -10z"/>
<path d="M2790 6989 c0 -5 5 -7 10 -4 6 3 10 8 10 11 0 2 -4 4 -10 4 -5 0 -10
-5 -10 -11z"/>
<path d="M2814 6926 c1 -8 5 -18 8 -22 4 -3 5 1 4 10 -1 8 -5 18 -8 22 -4 3
-5 -1 -4 -10z"/>
<path d="M2886 6932 c-3 -5 1 -9 9 -9 8 0 12 4 9 9 -3 4 -7 8 -9 8 -2 0 -6 -4
-9 -8z"/>
<path d="M2850 6870 c0 -5 5 -10 11 -10 5 0 7 5 4 10 -3 6 -8 10 -11 10 -2 0
-4 -4 -4 -10z"/>
<path d="M2855 6830 c3 -5 8 -10 11 -10 2 0 4 5 4 10 0 6 -5 10 -11 10 -5 0
-7 -4 -4 -10z"/>
<path d="M2916 6803 c-6 -14 -5 -15 5 -6 7 7 10 15 7 18 -3 3 -9 -2 -12 -12z"/>
<path d="M2853 6795 c0 -8 4 -12 9 -9 5 3 6 10 3 15 -9 13 -12 11 -12 -6z"/>
<path d="M2835 6759 c-4 -6 -5 -12 -2 -15 2 -3 7 2 10 11 7 17 1 20 -8 4z"/>
<path d="M2895 6710 c3 -5 8 -10 11 -10 2 0 4 5 4 10 0 6 -5 10 -11 10 -5 0
-7 -4 -4 -10z"/>
<path d="M2856 6692 c-2 -4 -1 -14 4 -22 7 -11 9 -9 7 8 -1 24 -3 26 -11 14z"/>
<path d="M2895 6670 c-3 -5 -1 -10 4 -10 6 0 11 5 11 10 0 6 -2 10 -4 10 -3 0
-8 -4 -11 -10z"/>
<path d="M2895 6630 c3 -5 8 -10 11 -10 2 0 4 5 4 10 0 6 -5 10 -11 10 -5 0
-7 -4 -4 -10z"/>
<path d="M2950 6606 c7 -7 13 -7 20 0 6 6 3 10 -10 10 -13 0 -16 -4 -10 -10z"/>
<path d="M2946 6572 c-3 -5 1 -9 9 -9 8 0 15 4 15 9 0 4 -4 8 -9 8 -6 0 -12
-4 -15 -8z"/>
<path d="M2899 6538 c-5 -18 -6 -38 -1 -34 7 8 12 36 6 36 -2 0 -4 -1 -5 -2z"/>
<path d="M2936 6508 c3 -5 10 -6 15 -3 13 9 11 12 -6 12 -8 0 -12 -4 -9 -9z"/>
<path d="M2875 6430 c3 -5 8 -10 11 -10 2 0 4 5 4 10 0 6 -5 10 -11 10 -5 0
-7 -4 -4 -10z"/>
<path d="M2990 6396 c0 -2 7 -7 16 -10 8 -3 12 -2 9 4 -6 10 -25 14 -25 6z"/>
<path d="M2915 6349 c-3 -4 2 -6 10 -5 21 3 28 13 10 13 -9 0 -18 -4 -20 -8z"/>
<path d="M2934 6286 c1 -8 5 -18 8 -22 4 -3 5 1 4 10 -1 8 -5 18 -8 22 -4 3
-5 -1 -4 -10z"/>
<path d="M2950 6189 c0 -5 5 -7 10 -4 6 3 10 8 10 11 0 2 -4 4 -10 4 -5 0 -10
-5 -10 -11z"/>
<path d="M2976 6148 c3 -4 11 -5 19 -1 21 7 19 12 -4 10 -11 0 -18 -5 -15 -9z"/>
<path d="M2975 6109 c-3 -4 2 -6 10 -5 21 3 28 13 10 13 -9 0 -18 -4 -20 -8z"/>
<path d="M3015 6030 c3 -5 8 -10 11 -10 2 0 4 5 4 10 0 6 -5 10 -11 10 -5 0
-7 -4 -4 -10z"/>
<path d="M3070 5986 c0 -2 8 -10 18 -17 15 -13 16 -12 3 4 -13 16 -21 21 -21
13z"/>
<path d="M2866 5972 c-3 -5 1 -9 9 -9 8 0 12 4 9 9 -3 4 -7 8 -9 8 -2 0 -6 -4
-9 -8z"/>
<path d="M3017 5925 c-4 -8 -3 -16 1 -19 4 -3 9 4 9 15 2 23 -3 25 -10 4z"/>
<path d="M2995 5829 c-3 -4 2 -6 10 -5 21 3 28 13 10 13 -9 0 -18 -4 -20 -8z"/>
<path d="M3030 5770 c0 -5 5 -10 11 -10 5 0 7 5 4 10 -3 6 -8 10 -11 10 -2 0
-4 -4 -4 -10z"/>
<path d="M3120 5710 c-9 -6 -10 -10 -3 -10 6 0 15 5 18 10 8 12 4 12 -15 0z"/>
<path d="M3070 5629 c0 -5 5 -7 10 -4 6 3 10 8 10 11 0 2 -4 4 -10 4 -5 0 -10
-5 -10 -11z"/>
<path d="M3149 5573 c-13 -16 -12 -17 4 -4 16 13 21 21 13 21 -2 0 -10 -8 -17
-17z"/>
<path d="M6530 5506 c0 -2 8 -10 18 -17 15 -13 16 -12 3 4 -13 16 -21 21 -21
13z"/>
<path d="M3036 5492 c-3 -5 1 -9 9 -9 8 0 12 4 9 9 -3 4 -7 8 -9 8 -2 0 -6 -4
-9 -8z"/>
<path d="M3120 5490 c-9 -6 -10 -10 -3 -10 6 0 15 5 18 10 8 12 4 12 -15 0z"/>
<path d="M6573 5441 c0 -11 5 -18 9 -15 4 3 5 11 1 19 -7 21 -12 19 -10 -4z"/>
<path d="M6606 5432 c-3 -5 1 -9 9 -9 8 0 12 4 9 9 -3 4 -7 8 -9 8 -2 0 -6 -4
-9 -8z"/>
<path d="M6573 5385 c0 -8 4 -12 9 -9 5 3 6 10 3 15 -9 13 -12 11 -12 -6z"/>
<path d="M6350 5315 c0 -7 30 -13 34 -7 3 4 -4 9 -15 9 -10 1 -19 0 -19 -2z"/>
<path d="M3206 5268 c3 -5 10 -6 15 -3 13 9 11 12 -6 12 -8 0 -12 -4 -9 -9z"/>
<path d="M6090 5269 c0 -5 5 -7 10 -4 6 3 10 8 10 11 0 2 -4 4 -10 4 -5 0 -10
-5 -10 -11z"/>
<path d="M6216 5272 c-3 -5 1 -9 9 -9 8 0 12 4 9 9 -3 4 -7 8 -9 8 -2 0 -6 -4
-9 -8z"/>
<path d="M6253 5265 c0 -8 4 -12 9 -9 5 3 6 10 3 15 -9 13 -12 11 -12 -6z"/>
<path d="M5839 5243 c-13 -16 -12 -17 4 -4 9 7 17 15 17 17 0 8 -8 3 -21 -13z"/>
<path d="M6175 5250 c-3 -5 -1 -10 4 -10 6 0 11 5 11 10 0 6 -2 10 -4 10 -3 0
-8 -4 -11 -10z"/>
<path d="M6310 5256 c0 -2 7 -7 16 -10 8 -3 12 -2 9 4 -6 10 -25 14 -25 6z"/>
<path d="M6095 5241 c-3 -5 -2 -12 3 -15 5 -3 9 1 9 9 0 17 -3 19 -12 6z"/>
<path d="M4590 5226 c7 -7 13 -7 20 0 6 6 3 10 -10 10 -13 0 -16 -4 -10 -10z"/>
<path d="M4679 5223 c-13 -16 -12 -17 4 -4 16 13 21 21 13 21 -2 0 -10 -8 -17
-17z"/>
<path d="M6050 5230 c0 -5 5 -10 11 -10 5 0 7 5 4 10 -3 6 -8 10 -11 10 -2 0
-4 -4 -4 -10z"/>
<path d="M4309 5213 c-13 -16 -12 -17 4 -4 9 7 17 15 17 17 0 8 -8 3 -21 -13z"/>
<path d="M4394 5204 c1 -8 4 -15 7 -16 2 -2 3 -1 2 1 -2 2 2 9 7 16 7 8 5 12
-4 12 -8 0 -13 -6 -12 -13z"/>
<path d="M4530 5211 c0 -6 4 -13 10 -16 6 -3 7 1 4 9 -7 18 -14 21 -14 7z"/>
<path d="M4630 5211 c0 -6 4 -13 10 -16 6 -3 7 1 4 9 -7 18 -14 21 -14 7z"/>
<path d="M4710 5210 c0 -5 5 -10 11 -10 5 0 7 5 4 10 -3 6 -8 10 -11 10 -2 0
-4 -4 -4 -10z"/>
<path d="M5849 5207 c6 -8 7 -18 3 -22 -4 -5 -1 -5 6 -1 10 6 10 11 1 22 -6 8
-14 14 -16 14 -3 0 0 -6 6 -13z"/>
<path d="M4106 5192 c-2 -4 4 -8 14 -8 10 0 16 4 14 8 -3 4 -9 8 -14 8 -5 0
-11 -4 -14 -8z"/>
<path d="M5555 5191 c-3 -5 -2 -12 3 -15 5 -3 9 1 9 9 0 17 -3 19 -12 6z"/>
<path d="M5886 5192 c-3 -5 1 -9 9 -9 8 0 12 4 9 9 -3 4 -7 8 -9 8 -2 0 -6 -4
-9 -8z"/>
<path d="M6033 5175 c0 -8 4 -12 9 -9 5 3 6 10 3 15 -9 13 -12 11 -12 -6z"/>
<path d="M5590 5167 c0 -2 6 -10 14 -16 11 -9 16 -9 22 1 4 7 4 10 -1 6 -4 -4
-14 -3 -22 3 -7 6 -13 9 -13 6z"/>
<path d="M4495 5150 c-3 -5 -1 -10 4 -10 6 0 11 5 11 10 0 6 -2 10 -4 10 -3 0
-8 -4 -11 -10z"/>
<path d="M5656 5152 c-3 -5 1 -9 9 -9 8 0 12 4 9 9 -3 4 -7 8 -9 8 -2 0 -6 -4
-9 -8z"/>
<path d="M3789 5133 c-13 -16 -12 -17 4 -4 16 13 21 21 13 21 -2 0 -10 -8 -17
-17z"/>
<path d="M5355 5139 c-4 -6 -5 -12 -2 -15 2 -3 7 2 10 11 7 17 1 20 -8 4z"/>
<path d="M3905 5130 c-3 -6 1 -7 9 -4 18 7 21 14 7 14 -6 0 -13 -4 -16 -10z"/>
<path d="M4155 5120 c-4 -6 -11 -7 -17 -4 -7 4 -8 2 -4 -5 6 -9 11 -9 22 0 14
11 18 19 10 19 -3 0 -8 -5 -11 -10z"/>
<path d="M5373 5115 c0 -8 4 -12 9 -9 5 3 6 10 3 15 -9 13 -12 11 -12 -6z"/>
<path d="M3850 5109 c0 -5 5 -7 10 -4 6 3 10 8 10 11 0 2 -4 4 -10 4 -5 0 -10
-5 -10 -11z"/>
<path d="M3975 5110 c-3 -5 -1 -10 4 -10 6 0 11 5 11 10 0 6 -2 10 -4 10 -3 0
-8 -4 -11 -10z"/>
<path d="M4055 5110 c3 -5 8 -10 11 -10 2 0 4 5 4 10 0 6 -5 10 -11 10 -5 0
-7 -4 -4 -10z"/>
<path d="M4216 5112 c-3 -5 1 -9 9 -9 8 0 12 4 9 9 -3 4 -7 8 -9 8 -2 0 -6 -4
-9 -8z"/>
<path d="M4566 5108 c3 -5 10 -6 15 -3 13 9 11 12 -6 12 -8 0 -12 -4 -9 -9z"/>
<path d="M4616 5112 c-3 -5 1 -9 9 -9 8 0 12 4 9 9 -3 4 -7 8 -9 8 -2 0 -6 -4
-9 -8z"/>
<path d="M5095 5110 c3 -5 8 -10 11 -10 2 0 4 5 4 10 0 6 -5 10 -11 10 -5 0
-7 -4 -4 -10z"/>
<path d="M5170 5109 c0 -5 5 -7 10 -4 6 3 10 8 10 11 0 2 -4 4 -10 4 -5 0 -10
-5 -10 -11z"/>
<path d="M4273 5095 c0 -8 4 -12 9 -9 5 3 6 10 3 15 -9 13 -12 11 -12 -6z"/>
<path d="M4513 5095 c0 -8 4 -12 9 -9 5 3 6 10 3 15 -9 13 -12 11 -12 -6z"/>
<path d="M3705 5090 c-3 -6 1 -7 9 -4 18 7 21 14 7 14 -6 0 -13 -4 -16 -10z"/>
<path d="M4816 5092 c-3 -5 1 -9 9 -9 8 0 12 4 9 9 -3 4 -7 8 -9 8 -2 0 -6 -4
-9 -8z"/>
<path d="M4895 5090 c-3 -5 -1 -10 4 -10 6 0 11 5 11 10 0 6 -2 10 -4 10 -3 0
-8 -4 -11 -10z"/>
<path d="M5015 5090 c-3 -5 -1 -10 4 -10 6 0 11 5 11 10 0 6 -2 10 -4 10 -3 0
-8 -4 -11 -10z"/>
<path d="M3550 5069 c0 -5 5 -7 10 -4 6 3 10 8 10 11 0 2 -4 4 -10 4 -5 0 -10
-5 -10 -11z"/>
<path d="M3654 5072 c4 -3 14 -7 22 -8 9 -1 13 0 10 4 -4 3 -14 7 -22 8 -9 1
-13 0 -10 -4z"/>
<path d="M3775 5069 c-3 -4 2 -6 10 -5 21 3 28 13 10 13 -9 0 -18 -4 -20 -8z"/>
<path d="M5696 4977 c3 -10 9 -15 12 -12 3 3 0 11 -7 18 -10 9 -11 8 -5 -6z"/>
<path d="M5275 4970 c-3 -5 -1 -10 4 -10 6 0 11 5 11 10 0 6 -2 10 -4 10 -3 0
-8 -4 -11 -10z"/>
<path d="M3316 4843 c-6 -14 -5 -15 5 -6 7 7 10 15 7 18 -3 3 -9 -2 -12 -12z"/>
</g>
</svg>
